<?xml version="1.0" standalone="no"?>
<!DOCTYPE svg PUBLIC "-//W3C//DTD SVG 1.1//EN" "http://www.w3.org/Graphics/SVG/1.1/DTD/svg11.dtd" >
<svg>
<metadata>
Created by FontForge 20110222 at Thu Jun 19 08:45:36 2014
 By Orthosie Webhosting
Generated by Metamorphosis Professional 2.03 Cyrillic by Volodymyr Kozlikin, Ukraine, E-mail pagan@mariupol.net
</metadata>
<defs>
<font id="BonzaiRegular" horiz-adv-x="468" >
  <font-face 
    font-family="Bonzai"
    font-weight="5"
    font-stretch="normal"
    units-per-em="1000"
    panose-1="0 0 0 0 0 0 0 0 0 0"
    ascent="800"
    descent="-200"
    x-height="376"
    cap-height="605"
    bbox="-125 -213 857 740"
    underline-thickness="0"
    underline-position="0"
    unicode-range="U+0020-20A0"
  />
<missing-glyph horiz-adv-x="740" 
d="M46 0v740h648v-740h-648zM648 46v648h-556v-648h556z" />
    <glyph glyph-name=".notdef" horiz-adv-x="740" 
d="M46 0v740h648v-740h-648zM648 46v648h-556v-648h556z" />
    <glyph glyph-name=".null" horiz-adv-x="0" 
 />
    <glyph glyph-name="nonmarkingreturn" horiz-adv-x="500" 
 />
    <glyph glyph-name="space" unicode=" " horiz-adv-x="500" 
 />
    <glyph glyph-name="exclam" unicode="!" horiz-adv-x="201" 
d="M114 0l-61 49l41 74l10 19q10 -6 26 -24t16 -48q0 -33 -32 -70v0zM153 592q17 -71 17 -149q0 -80 -15 -142.5t-25 -87t-15.5 -37t-9.5 -18.5l-5 93q-7 65 -22.5 151t-46.5 149l122 41v0z" />
    <glyph glyph-name="quotedbl" unicode="&#x22;" horiz-adv-x="250" 
d="M187 660q30 -41 30 -84q0 -38 -16.5 -63t-29.5 -37l1 7q0 54 -37 117l52 60v0zM89 660q24 -30 24 -67t-14 -61.5t-20.5 -34.5t-12.5 -16v4v9q0 51 -34 109l57 57v0z" />
    <glyph glyph-name="numbersign" unicode="#" horiz-adv-x="672" 
d="M623 401l-77 -1l-137 -2l-182 -6q-46 0 -93 -4t-70 -6l10 55q17 0 91 -4.5t112 -4.5l214 -16l132 -11v0zM50 198l118 6l200 9l200 4l50 -1l-14 -59q-37 6 -79 10t-119 11l-219 14l-137 6v0zM479 598l-18 -133l-24 -215q-12 -119 -12 -207l2 -55l-77 18q12 74 15.5 91
t19.5 90l36 164l34 145l17 71l7 31v0zM266 600l-5 -36l-11 -82l-21 -198q-11 -123 -11 -200v-40t4 -41l-72 7q0 28 5 65t19.5 117t33.5 164l36 155l6 22l8 31l8 36v0z" />
    <glyph glyph-name="dollar" unicode="$" horiz-adv-x="304" 
d="M170 544q-3 -21 -12 -41q-6 -17 -14 -28l-8 43l-11 47l45 -21v0zM180 56l-54 -17q19 63 19 101l-1 14v3q7 -1 21.5 -26t14.5 -75v0zM32 188l30 76q55 -43 98 -43q32 0 51.5 17.5t25.5 27.5q-9 -24 -40.5 -63t-85.5 -39q-37 0 -79 24v0zM263 441l-21 -74q-47 46 -97 46
q-32 0 -52.5 -12.5t-29.5 -21.5h-17q3 10 12 24.5t29.5 40t77.5 25.5q45 0 98 -28v0zM272 235l-68 -59q0 55 -38 102.5t-70 69.5l-50 31h8q59 0 126.5 -28t91.5 -116v0z" />
    <glyph glyph-name="uni20A0" unicode="&#x20a0;" horiz-adv-x="518" 
d="M340 538q86 -56 86 -160l-1 -20l-2 -11q-3 16 -17.5 47t-51 61.5t-92.5 30.5q-69 0 -155 -51l-57 134q58 20 122 20q69 0 98.5 -13.5t46.5 -22.5t23 -15v0zM60 206q43 80 93 133t98.5 80t91 36.5t76.5 9.5l32 -2l17 -3q-21 -3 -55 -16q-39 -13 -89.5 -48t-89 -103
t-38.5 -168l-136 81v0zM396 16q-68 -17 -126 -17q-129 0 -169 67t-40 127l23 -33q8 -11 22.5 -22.5t41.5 -28t79 -16.5q93 0 202 82l-33 -159v0zM421 321l-51 -1l-90 -2l-119 -6q-30 0 -60.5 -4t-45.5 -6l6 55q11 0 59.5 -4.5t73.5 -4.5l140 -16l87 -11v0zM50 245l77 6
l131 9l131 4l33 -1l-9 -59q-25 6 -52.5 10t-77.5 11l-143 14l-90 6v0z" />
    <glyph glyph-name="percent" unicode="%" horiz-adv-x="423" 
d="M84 -1h-37l299 581l37 -3zM206 52q-19 33 -19 64l1 9v6q8 69 38.5 95t50.5 31q-11 -9 -32 -39q-18 -29 -18 -67v-13.5t4 -21.5q7 -12 27 -33.5t46 -21.5l14 2l-43 -58q-49 13 -69 47zM366 194q16 -45 16 -63q-4 -50 -35 -79t-54 -38q9 9 26.5 37t17.5 59q0 15 -5 25
q-1 12 -18.5 34t-65.5 35l48 55q53 -25 70 -65zM59 378q-19 31 -19 64l1 9v6q8 69 38 95q34 27 51 31q-14 -12 -32 -40t-18 -67v-19q3 -11 4 -15q7 -12 27 -33.5t45 -21.5l14 2l-42 -58q-52 14 -69 47zM219 519q16 -42 16 -62q-5 -52 -36 -80t-53 -37q9 9 26.5 37t17.5 59
q0 15 -5 25q-1 10 -18.5 32.5t-65.5 36.5l48 55q53 -25 70 -66z" />
    <glyph glyph-name="ampersand" unicode="&#x26;" horiz-adv-x="581" 
d="M315 575q-58 -11 -87 -44.5t-34 -53t-8.5 -40.5t-3.5 -25l-2 -23q0 -76 77.5 -143.5t157.5 -107t116 -52.5q-15 0 -56.5 6.5t-90.5 27.5t-79 40.5t-83 64t-112 143.5l-14 39q-9 27 -9 64q0 72 46 125zM331 316q-32 -34 -63.5 -61.5t-77 -55t-85.5 -41.5t-56 -17l60 47
q40 33 82.5 77.5t66 76.5t55.5 85.5t32 123.5l-1 27l96 -89q-46 -104 -109 -173zM153 169q19 -51 50 -73q32 -20 47 -23h14q57 0 93 49.5t55 107.5l21 78l3 -20l2 -35q0 -43 -13 -89.5t-52 -90.5t-107 -69l-24 -4l-39 -3q-122 0 -149 107z" />
    <glyph glyph-name="quotesingle" unicode="'" horiz-adv-x="151" 
d="M91 482q24 -35 24 -70q0 -38 -19 -68.5t-30 -41.5l-6 63q-6 42 -24 64l55 53v0z" />
    <glyph glyph-name="parenleft" unicode="(" horiz-adv-x="295" 
d="M98 -28q-49 123 -49 238q0 119 43 212.5t89 146t65 67.5q-8 -8 -16 -19t-29 -44t-47.5 -111.5t-26.5 -175.5q0 -129 50 -259l-79 -55v0z" />
    <glyph glyph-name="parenright" unicode=")" horiz-adv-x="272" 
d="M170 685q59 -133 59 -258q0 -86 -27.5 -169t-59.5 -133.5t-61 -82.5l-38 -39q6 7 14.5 19.5t29 46.5t45.5 113t25 165q0 117 -51 240l64 98v0z" />
    <glyph glyph-name="asterisk" unicode="*" horiz-adv-x="280" 
d="M59 214q69 82 103.5 114.5t48.5 41.5l-55 -74q-37 -54 -63 -103l-34 21v0zM96 364q14 -18 35.5 -50t35.5 -54l40 -68l-16 21l-44 49q-33 35 -80 77l29 25v0zM244 243q-45 22 -107 29t-103 7l72 12q50 7 107 7l33 -1l-2 -54v0zM171 382q-29 -154 -29 -228l-8 76
q0 27 -1.5 50t-3.5 54l2 46l40 2v0z" />
    <glyph glyph-name="plus" unicode="+" horiz-adv-x="256" 
d="M172 203l-88 19q14 42 14 84q0 25 -5 58l-10 33q22 -9 57 -45t35 -111l-3 -38v0zM225 339l-15 -87q-38 16 -81 16q-38 0 -63.5 -9t-34.5 -15q7 25 40.5 63t102.5 38q27 0 51 -6v0z" />
    <glyph glyph-name="comma" unicode="," horiz-adv-x="198" 
d="M89 184l78 -58q-14 -61 -43.5 -92.5t-53 -40t-39.5 -10.5q58 85 58 201v0z" />
    <glyph glyph-name="hyphen" unicode="-" horiz-adv-x="264" 
d="M231 322l-21 -89q-33 12 -72 12q-15 0 -29.5 -1.5t-35.5 -5.5l-40 -13q5 13 18 33t52 45q38 22 92 22l36 -3v0z" />
    <glyph glyph-name="period" unicode="." horiz-adv-x="161" 
d="M93 1l-60 48q31 36 43 57t16.5 30.5t6.5 14.5q29 -41 29 -76q0 -29 -13 -47.5t-22 -26.5v0z" />
    <glyph glyph-name="slash" unicode="/" horiz-adv-x="440" 
d="M406 740l-48 -101q-24 -49 -40 -84.5t-43 -98t-48 -115.5t-55 -148t-56 -201l-83 15l50 126l19.5 45.5t35.5 74.5l60 121l60 114l96 167l52 85v0z" />
    <glyph glyph-name="zero" unicode="0" horiz-adv-x="492" 
d="M245 -35q-119 57 -157.5 134t-38.5 134v21q0 99 26 162.5t59 93t58.5 38.5t39.5 10q-30 -15 -75 -69t-45 -156v-35q3 -13 4 -17q0 -22 9.5 -54.5t47.5 -78t111 -78.5l-39 -105v0zM258 571q79 -32 119.5 -82.5t51 -90t10.5 -57.5q2 -18 3 -28.5t1 -32.5
q0 -94 -36.5 -155.5t-71.5 -85.5t-56 -33q22 20 52 77.5t30 156.5q0 13 -0.5 27.5t-2.5 30t-4 25.5t-10.5 36t-46 60.5t-104.5 34.5l65 117v0z" />
    <glyph glyph-name="one" unicode="1" horiz-adv-x="258" 
d="M92 -16q-25 82 -25 177q0 106 21 176t34 106t26.5 62.5t24 46t19.5 32.5q-10 -37 -23.5 -117t-13.5 -171q0 -161 53 -269l-116 -43v0zM58 444l-8 73q40 6 63.5 16.5t35 15.5t18.5 10q-5 -10 -16 -26t-32 -44t-61 -45v0z" />
    <glyph glyph-name="two" unicode="2" 
d="M420 462l1 -24q0 -77 -54 -158.5t-120.5 -142t-122.5 -101.5l-77 -53q29 30 87.5 101.5t121 182t62.5 201.5q0 25 -6 48l108 -54v0zM396 -1q-49 10 -125 10l-101 -3l-66 -5l19 6l29 10l87 32q54 21 99.5 43t66.5 43l-9 -136v0zM59 471q92 104 183 104q49 0 73.5 -16
t35.5 -25t17 -16l-14 6q-6 3 -25 3q-42 0 -99.5 -37.5t-128.5 -136.5l-42 118v0z" />
    <glyph glyph-name="three" unicode="3" horiz-adv-x="477" 
d="M227 388q119 -29 161 -83.5t42 -107.5l-1 -17l-2 -8q-15 -55 -49.5 -91t-63.5 -50q-27 -15 -41 -18q16 18 44.5 62.5t28.5 91.5q0 31 -16 54q-14 24 -42.5 38.5t-54 22t-56.5 11.5l50 95v0zM295 313l-8 90q66 27 66 67q0 8 -4 20l-6 10q12 -6 33 -23.5t21 -47.5
q0 -55 -102 -116v0zM47 85l69 98q19 -80 68.5 -120.5t80.5 -51.5l-18 -8q-12 -4 -34 -4q-78 0 -166 86v0zM89 514q92 73 163 73q49 0 74.5 -27t31.5 -44l-16 9q-13 5 -33 5q-85 0 -191 -118l-29 102v0z" />
    <glyph glyph-name="four" unicode="4" horiz-adv-x="536" 
d="M487 264l-30 -91q-96 21 -177 21q-75 0 -113 -13.5t-50 -23.5q32 30 108.5 75t174.5 45q47 0 87 -13v0zM385 -12l-111 23q13 50 23.5 102t19.5 121t9 147q0 60 -5 100l-8 53q26 -29 62 -115t36 -222q0 -99 -26 -209v0zM49 196q31 134 97 221t107 113.5t61 37.5t33 16
l-38 -39q-28 -29 -64 -84.5t-59 -120t-32.5 -110t-9.5 -93.5l-95 59v0z" />
    <glyph glyph-name="five" unicode="5" horiz-adv-x="462" 
d="M139 197q0 -37 8 -67t30 -64.5t46 -45.5q23 -13 37 -16l-18 -4l-31 -3q-104 0 -165 115zM359 470q-110 0 -170.5 30.5t-75.5 48.5l30 -7q22 -5 55 -5q99 0 206 54l-13 -120zM174 556q-51 -114 -51 -201l1 -19v-4l1 -6l-16 -9l-9 60q-6 45 -6 90q0 79 21 121zM255 -18
q68 91 68 187l-1 20l-2 11q-31 119 -133 119q-43 0 -75 -14l-49 -23q16 22 60.5 56.5t106.5 34.5q73 0 129.5 -56.5t56.5 -139.5q0 -25 -5 -54.5t-14 -61.5z" />
    <glyph glyph-name="six" unicode="6" horiz-adv-x="441" 
d="M106 67q-34 44 -46 87.5t-12 75.5v5v5l1 5v8q0 121 43 195.5t84.5 102.5t63.5 34q-28 -18 -75.5 -82t-47.5 -175q0 -24 1 -37t6 -39q1 -14 15 -46q12 -32 48.5 -74.5t101.5 -71.5l-81 -77q-66 36 -102 84zM251 377q44 0 65.5 -15t29.5 -22t16 -16q31 -52 31 -101
q0 -62 -37 -102t-59 -51q3 4 9 19.5t14.5 38t8.5 58.5q0 69 -64 85l-4 1l-10 1q-41 0 -77 -38l-77 69q80 73 154 73z" />
    <glyph glyph-name="seven" unicode="7" horiz-adv-x="424" 
d="M99 -14q0 62 13 120t43.5 146t76 159.5t77 106t47.5 47.5l-26 -50q-13 -25 -40.5 -101t-46.5 -171t-19 -209v-27l-125 -21v0zM52 550q39 30 89 30q72 0 138.5 -46.5t96.5 -78.5q-4 2 -28.5 10.5t-54 19t-86.5 10.5q-108 0 -159 -80l4 135v0z" />
    <glyph glyph-name="eight" unicode="8" horiz-adv-x="474" 
d="M423 137q-18 -59 -52 -90t-53.5 -36.5t-29 -7.5t-16.5 -2q22 19 53 62t31 89q0 72 -103 109l63 67q61 -22 85.5 -67.5t24.5 -91.5l-1 -20l-1 -7v-3l-1 -2v0zM368 404q-43 -64 -83.5 -91.5t-59.5 -33.5q25 15 62 51t44 89q0 12 -7 33t-33.5 42.5t-78.5 25.5l66 67
q110 -24 110 -109q0 -10 -2 -21.5t-5 -23.5l-13 -29v0zM91 486q42 82 109 82q16 0 24 -3l13 -4l-31 -6q-20 -6 -41.5 -26.5t-21.5 -59.5q3 -20 25.5 -57.5t87.5 -51.5l-39 -82q-75 30 -103 75t-28 92l2 26l3 15v0zM50 164q16 63 56 94.5t71 38.5l48 8q-25 -5 -59.5 -29.5
t-34.5 -82.5l1 -21q1 -11 14.5 -35t50.5 -46.5t102 -22.5l-46 -86q-120 18 -162.5 66.5t-42.5 96.5l1 12l1 3v4v0z" />
    <glyph glyph-name="nine" unicode="9" horiz-adv-x="445" 
d="M392 273q-27 -116 -74 -176.5t-84 -77.5t-53 -19q35 29 90 104.5t55 172.5q0 140 -161 256l77 67q62 -31 95.5 -76.5t46.5 -98.5t13 -93l-2 -42l-3 -17v0zM77 262q-29 53 -29 101q0 68 40.5 106.5t70.5 52.5q-14 -16 -32.5 -47.5t-18.5 -71.5t23 -70l23 -14q16 -8 38 -8
q38 0 75 35l73 -65q-80 -72 -153 -72q-43 0 -70.5 19t-39.5 34v0z" />
    <glyph glyph-name="colon" unicode=":" horiz-adv-x="250" 
d="M187 660q31 -40 31 -83q0 -37 -16.5 -63t-30.5 -38q0 64 -36 124l52 60v0zM89 660q24 -30 24 -68q0 -36 -12 -57t-20 -34t-15 -20q0 66 -34 122l57 57v0z" />
    <glyph glyph-name="semicolon" unicode=";" horiz-adv-x="140" 
d="M59 71l72 -51q0 -52 -20.5 -76.5t-35 -36t-24.5 -16.5t-23 -9.5t-19 -5.5q31 55 40.5 108.5t9.5 86.5v0zM34 152l46 84q43 -37 43 -83q0 -19 -7 -36l-12 -21q-10 9 -23 20t-24 19l-23 17v0z" />
    <glyph glyph-name="equal" unicode="=" horiz-adv-x="296" 
d="M229 253l-27 6l-49 3q-61 0 -109 -20q12 29 47.5 66t111.5 37q6 0 18.5 -1t27.5 -4l-20 -87v0zM232 361l-28 6q-15 3 -48 3q-61 0 -109 -20q9 26 46 64.5t113 38.5l46 -5l-20 -87v0z" />
    <glyph glyph-name="question" unicode="?" horiz-adv-x="543" 
d="M256 156q12 -8 29 -31q18 -21 18 -54q0 -35 -30 -70l-72 52q30 37 42 66.5t13 36.5v0zM461 545l-15 6l-31 3q-32 0 -73 -15t-95 -57.5t-117 -117.5l-80 66q137 162 276 162q52 0 87.5 -17t47.5 -30v0zM473 555l12 -32q8 -24 8 -58q0 -45 -20 -93t-72 -100t-141 -101
l-81 92q132 26 195.5 86.5t81 118t17.5 87.5v0z" />
    <glyph glyph-name="A" unicode="A" horiz-adv-x="568" 
d="M116 -16l-3 73q0 145 37.5 255.5t90 184.5t89 106t57.5 46l-31 -44q-13 -20 -23.5 -38.5t-31.5 -60.5t-44 -118t-23 -151q0 -90 32 -165l-150 -88v0zM383 586q18 -27 36.5 -61t37.5 -81.5t32.5 -104t18 -80t4.5 -52.5q6 -69 6 -113v-12q0 -43 -3 -70l-5 -45l-19 79
q-11 47 -42 136.5t-76.5 180t-104.5 152.5l115 71v0zM467 260l-63 -72q-55 44 -118 64.5t-117 20.5q-23 0 -55.5 -4.5t-43.5 -10.5l-20 -7q2 3 11 11t19 16.5t52 26.5q42 15 97 15q103 0 238 -60v0z" />
    <glyph glyph-name="B" unicode="B" horiz-adv-x="510" 
d="M368 27q-56 -29 -116 -29l-44 3l-19 4l-8 2q13 0 31.5 3.5t56 10.5t87.5 37t50 81q0 35 -25 75q-11 10 -48.5 27.5t-91.5 17.5q-85 0 -174 -54l199 160q77 -8 121 -37q44 -32 59 -71t15 -75l-2 -31l-1 -8v-3l-1 -2v-2l-1 -3v-1q-31 -74 -88 -105zM239 587
q144 -44 144 -148q0 -43 -19 -80t-30 -51l-24 6l2 4l2 6l6 19q6 21 6 45q0 53 -19.5 65.5t-27 15.5t-18.5 8.5t-39 5.5q-60 0 -124 -52l-2 24l143 132v0zM95 -25q-46 153 -46 289q0 141 36 223.5t58 107.5q-7 -22 -17 -69t-10 -117q0 -84 23 -173t77 -175l-121 -86v0z" />
    <glyph glyph-name="C" unicode="C" horiz-adv-x="430" 
d="M75 173q-27 83 -27 154q0 96 26.5 135.5t41 56t27.5 25.5q-15 -19 -38.5 -68.5t-23.5 -109.5q0 -78 67 -157t224 -79l-24 -134q-71 6 -127.5 31.5t-93.5 63.5t-52 82v0zM382 586l-28 -128q-51 22 -101 22q-65 0 -102.5 -28.5t-49.5 -46.5q4 18 20 50.5t34 53.5t55.5 52.5
t111.5 31.5q28 0 60 -7v0z" />
    <glyph glyph-name="D" unicode="D" horiz-adv-x="516" 
d="M75 -2q-27 107 -27 219q0 159 42.5 266t71.5 146q-10 -24 -27 -86.5t-17 -146.5q0 -169 84 -331l-127 -67v0zM199 -11l18 150q77 0 126 26t73.5 60.5t33.5 59.5l9 37l1 -9l2 -11l2 -35q0 -43 -10 -77q-9 -39 -37.5 -79.5t-68 -65t-73 -36.5t-76.5 -20v0zM334 553
q29 -17 60 -53.5t52.5 -81t21.5 -84.5l-104 -28q-31 152 -100 202.5t-137 50.5q7 7 29 19.5t59 12.5q55 0 119 -38v0z" />
    <glyph glyph-name="E" unicode="E" horiz-adv-x="523" 
d="M466 586l-38 -134q-108 81 -211 81q-40 0 -70.5 -11t-37.5 -16q12 25 60.5 59t163.5 34q58 0 133 -13v0zM412 383l-33 -119q-109 65 -203 65q-50 0 -78 -12.5t-37 -19.5q4 10 27 33.5t74.5 46t123.5 22.5q58 0 126 -16v0zM423 -1q-52 0 -93 10.5t-88 38t-65 48.5l3 22
q7 -3 20 -8t25 -8q27 -10 73 -10q104 0 178 80l-53 -173v0zM79 -1q-32 128 -32 236q0 40 4 80t16.5 93.5t34.5 100t43 73.5l25 31q-5 -11 -12.5 -38.5t-18 -69t-10.5 -122.5q0 -166 86 -292l-136 -92v0z" />
    <glyph glyph-name="F" unicode="F" 
d="M72 -17q-25 112 -25 219q0 151 29 218.5t44 96t27 42.5q-6 -12 -19.5 -60.5t-13.5 -118.5q0 -167 88 -343l-130 -54v0zM380 356l-31 -107q-77 60 -151 60q-53 0 -81.5 -17t-39.5 -24.5t-18 -15.5l12 24q6 10 13 18.5t20 19.5q19 19 64 36.5t106 17.5q52 0 106 -12v0z
M421 572l-16 -116q-78 54 -177 54q-62 0 -89.5 -9t-43.5 -14t-32 -13q8 14 30.5 37t79.5 46q53 24 144 24q53 0 104 -9v0z" />
    <glyph glyph-name="G" unicode="G" horiz-adv-x="523" 
d="M274 -9q-94 15 -144 73t-67 113q-8 30 -12.5 49t-4.5 30q0 119 35.5 192t69.5 97q33 26 52 32q-27 -24 -61 -76.5t-34 -129.5q0 -56 27.5 -113t90.5 -116l26 -14q18 -8 42 -8q50 0 89 48l4 -17l-113 -160v0zM455 419q22 -54 22 -116q0 -58 -19.5 -113t-40 -86.5t-34 -50
t-19.5 -24.5l-29 -31q8 18 21.5 65.5t13.5 111.5q0 86 -35 159l120 85v0zM472 579l-55 -132q-86 61 -165 61q-65 0 -103.5 -30.5t-53.5 -53.5q3 10 10.5 24t18.5 31q20 36 81 73.5t161 37.5q51 0 106 -11v0z" />
    <glyph glyph-name="H" unicode="H" horiz-adv-x="530" 
d="M86 -15q-40 124 -40 245q0 129 32.5 221t56.5 130q-3 -10 -10 -50.5t-7 -99.5q0 -16 1 -36.5t3.5 -44t6 -44.5t10 -44.5t14 -47t19.5 -55.5t49 -93l-135 -81v0zM473 583q11 -71 11 -140q0 -103 -21 -186t-48.5 -140t-48.5 -85l-30 -38q13 28 30 95.5t17 168.5
q0 32 -3 68.5t-8.5 70.5t-14.5 71.5t-22 75.5l138 39v0zM400 367l-68 -126q-88 82 -164 82q-28 0 -48 -9q-18 -10 -24 -16q4 10 19 25.5t64 32.5t126 17q48 0 95 -6v0z" />
    <glyph glyph-name="I" unicode="I" horiz-adv-x="255" 
d="M196 598q5 -30 8 -63t3 -64q0 -109 -25.5 -216.5t-49.5 -170t-39 -90.5l8 61q4 39 4 109q0 86 -13.5 184t-43.5 186l148 64v0z" />
    <glyph glyph-name="J" unicode="J" horiz-adv-x="458" 
d="M50 93l116 104q0 -62 27.5 -99t66.5 -50t80 -13h15q8 0 16 2l9 1l4 1h2q-10 -8 -50 -23.5t-92 -15.5q-113 0 -194 93v0zM216 537l141 60q51 -92 51 -221q0 -110 -30 -212.5t-48 -139.5l-37 -6q8 12 26 57q15 44 15 111q0 164 -118 351v0z" />
    <glyph glyph-name="K" unicode="K" horiz-adv-x="656" 
d="M609 39l-141 -57q0 77 -13 135.5t-48.5 121t-80 85.5t-68.5 26q8 0 24.5 -2.5t30.5 -4.5q38 -9 92.5 -37t111.5 -93t92 -174v0zM554 529q-49 -75 -90.5 -112.5t-69.5 -57.5t-69.5 -40.5t-87.5 -30.5t-93 -10q-39 0 -62 5l-35 7q38 3 98 23q69 20 154 85.5t134 185.5
l121 -55v0zM158 -16q-26 118 -26 235q0 158 36 251t60 124l-6 -47l-3 -87q0 -216 72 -411l-133 -65v0z" />
    <glyph glyph-name="L" unicode="L" horiz-adv-x="470" 
d="M395 5q-68 -6 -113 -6q-70 0 -103.5 8.5t-39.5 13.5l53 12q19 5 42.5 14t71 32t116.5 80l-27 -154v0zM84 5q-36 114 -36 232q0 135 34.5 234.5t56.5 135.5q-4 -12 -10 -56t-6 -111q0 -62 8.5 -122.5t30.5 -124.5t57 -121l-135 -67v0z" />
    <glyph glyph-name="M" unicode="M" horiz-adv-x="671" 
d="M72 -13q-24 92 -24 185q0 99 24 198t47.5 154.5t36.5 76.5q-8 -28 -15.5 -66.5t-10.5 -72t-3 -73.5q0 -189 84 -353l-139 -49v0zM148 567q13 -5 33.5 -18t38.5 -28t50 -47.5t77 -112t79 -198.5l-136 -172q14 70 14 136q0 116 -37 215t-74 151t-51 66q0 8 6 8v0zM533 592
l44 -132q-74 -29 -136 -80.5t-103.5 -102t-69.5 -93.5l-32 -53l15 70q9 33 18 58.5t33 81t84 130.5t147 121v0zM599 -17l-117 44q59 127 59 240q0 69 -14 110t-24.5 63t-26 44.5t-25.5 30.5q17 -12 56 -53t77.5 -125.5t38.5 -190.5q0 -76 -24 -163v0z" />
    <glyph glyph-name="N" unicode="N" horiz-adv-x="526" 
d="M434 591q44 -121 44 -244q0 -128 -32.5 -217.5t-58.5 -130.5l9 53q3 23 4 40.5t1 53.5q0 89 -21.5 190t-75.5 197l130 58v0zM137 571q92 -97 148 -190.5t80.5 -163t30 -100.5t7.5 -45t2 -23l-65 100q-48 70 -126.5 156t-164.5 134l88 132v0zM67 -23q-19 102 -19 191
q0 112 22 188t45 116.5t33 52.5l-13 -59q-4 -22 -6 -46t-2 -57q0 -81 19 -156q18 -85 62 -163l-141 -67v0z" />
    <glyph glyph-name="O" unicode="O" horiz-adv-x="559" 
d="M308 591q89 -39 133.5 -98.5t58.5 -105.5q3 -15 7.5 -33.5t4.5 -31.5q0 -117 -49.5 -191t-85 -94.5t-52 -28.5t-31.5 -13q30 24 74.5 89t44.5 157v27q-3 15 -4.5 24.5t-4.5 20t-12 31.5q-11 34 -48.5 77.5t-99.5 60.5l64 109v0zM274 -15q-91 24 -141.5 71t-66 82.5
t-18.5 53.5l-1 33q0 97 32.5 169t75.5 112t77 57l47 20q-32 -21 -83 -90t-51 -176q0 -42 9 -78l24 -47q20 -32 65.5 -64.5t109.5 -32.5l-79 -110v0z" />
    <glyph glyph-name="P" unicode="P" horiz-adv-x="459" 
d="M125 503q86 80 154 80l16 -1l8 -3q66 -15 87 -67t21 -94q-1 8 -8.5 26t-26 36t-46.5 18q-63 0 -153 -106l-52 111v0zM201 169l-77 129q52 -29 94 -29q52 0 90.5 32.5t53.5 58.5t20.5 37t9.5 21l1 -8v-16q0 -21 -3 -41.5t-13.5 -56.5t-53 -76t-122.5 -51v0zM82 -15
q-16 60 -25 123.5t-9 125.5q0 140 33.5 232t55.5 125l-16 -74q-10 -53 -10 -125q0 -63 9 -119t25.5 -104.5t31 -78t34.5 -61.5l-129 -44v0z" />
    <glyph glyph-name="Q" unicode="Q" horiz-adv-x="558" 
d="M439 -78q-50 57 -148 57q12 14 40 31.5t72 17.5q46 0 96 -30l-60 -76v0zM272 -2q-86 14 -135 63.5t-67 96t-21 62.5v8v4l-1 12q0 126 51.5 204t103.5 108t75 37q-33 -25 -84 -93t-51 -159v-23t4 -22q2 -18 16.5 -60t49.5 -74.5t66.5 -46t71.5 -13.5l-79 -104v0zM310 598
q84 -42 127.5 -95t56 -90t12.5 -53q4 -19 4 -57q0 -84 -30.5 -142.5t-72.5 -92t-72 -46.5l-45 -17q6 3 18.5 15.5t30.5 31.5t45.5 70.5t27.5 114.5l-5 48q0 41 -31.5 104t-130.5 103l65 106v0z" />
    <glyph glyph-name="R" unicode="R" horiz-adv-x="527" 
d="M199 168l-93 149l5 16q57 -62 118 -62l13 1h4l3 1q44 0 83 30t55 49q0 -19 -10.5 -56t-53 -78t-124.5 -50v0zM233 585q98 0 149.5 -42t51.5 -112q0 -39 -13.5 -74t-21.5 -49l6 19l3 31q0 97 -129 114l-4 1l-4 1l-9 1l-32 2q-67 0 -115 -33l-5 31l123 110v0zM75 -13
q-28 109 -28 222q0 108 22.5 190.5t36.5 112t27 52.5t18 30q-9 -28 -20 -89t-11 -142q0 -86 13.5 -146t29.5 -100t37 -77l-125 -53v0zM480 32l-117 -50q0 83 -22.5 126t-37 63.5t-36.5 40t-36 26.5q21 0 61.5 -12t95 -57t92.5 -137v0z" />
    <glyph glyph-name="S" unicode="S" horiz-adv-x="518" 
d="M178 538q6 6 23 15t46.5 22.5t98.5 13.5q64 0 122 -20l-57 -134q-86 51 -155 51q-56 0 -92.5 -30.5t-51 -61.5t-17.5 -47l-2 11l-1 20q0 104 86 160v0zM458 206l-136 -81q0 100 -38.5 168t-89 103t-89.5 48q-34 13 -55 16l17 3l32 2q34 0 76.5 -9.5t91 -36.5t98.5 -80
t93 -133v0zM122 16l-33 159q109 -82 202 -82q52 0 79 16.5t41.5 28t22.5 22.5l23 33q0 -60 -40 -127t-169 -67q-58 0 -126 17v0z" />
    <glyph glyph-name="T" unicode="T" horiz-adv-x="528" 
d="M168 -21q-19 64 -19 136q0 100 23.5 171t39.5 108t32 65t27 47.5t24 36.5l-33 -104q-9 -38 -14 -76.5t-5 -80.5q0 -157 89 -237l-164 -66v0zM48 462l68 127q75 -40 172 -40q39 0 87 8t70 16l35 12q-13 -21 -43 -54.5t-92 -68t-142 -34.5q-78 0 -155 34v0z" />
    <glyph glyph-name="U" unicode="U" horiz-adv-x="544" 
d="M495 529q-16 -29 -31 -63t-29 -81t-24 -105q-7 -55 -7 -105l3 -69l6 -39q-13 13 -36 46.5t-44 93.5t-21 136q0 127 72 262zM222 526q-32 -53 -46.5 -119.5t-14.5 -134.5q0 -93 17 -167.5t30 -111.5l-32 33q-22 23 -51.5 69t-46.5 97t-23 87.5t-6 74.5q0 124 62 248z
M385 4q-53 38 -123 38q-59 0 -92.5 -14t-50.5 -23t-25 -14q5 15 27 40q20 26 78.5 53.5t147.5 27.5q39 0 55 -1.5t44 -6.5z" />
    <glyph glyph-name="V" unicode="V" horiz-adv-x="560" 
d="M221 566q-55 -106 -55 -225q0 -127 48 -225t80 -138q-26 7 -82.5 44t-111 132t-54.5 255q0 55 9 126zM514 479q0 -79 -36.5 -161.5t-68.5 -128.5t-56.5 -77.5t-39.5 -49t-30 -34t-26 -26.5l-14 26q35 32 89 117.5t54 204.5q0 109 -60 214l170 10q18 -45 18 -95z" />
    <glyph glyph-name="W" unicode="W" horiz-adv-x="687" 
d="M57 550l145 -47q-36 -119 -36 -237q0 -42 3 -77.5t13.5 -87.5t24.5 -87q6 -20 11.5 -33t8.5 -19l-37 34q-24 25 -57 80t-59 142.5t-26 197.5q0 78 9 134v0zM460 514q0 -117 -35.5 -190t-63 -111.5t-74 -82.5t-81 -64.5t-54 -31t-28.5 -14.5l45 45q29 32 70.5 94t72 147
t30.5 176q0 49 -9 96l127 -64v0zM458 -19q-117 83 -161.5 201.5t-44.5 234.5q0 56 5 80l7 46l11 -72q9 -52 39 -127.5t91 -151t152 -116.5l-99 -95v0zM628 598q11 -50 11 -104q0 -164 -79 -280.5t-132 -160.5q26 38 63.5 129.5t37.5 202.5q0 98 -39 185l138 28v0z" />
    <glyph glyph-name="X" unicode="X" horiz-adv-x="600" 
d="M119 498l140 114l-1 -41q0 -127 41 -233.5t95 -177t98 -109.5t62 -51q-21 8 -66 33t-116.5 83.5t-142 156.5t-110.5 225v0zM539 529q-26 -143 -101 -249t-158.5 -168.5t-128 -84.5t-67.5 -32t-38 -15q10 7 30.5 25.5t48.5 43.5t96.5 110t109 174t56.5 146t16 118l136 -68
v0z" />
    <glyph glyph-name="Y" unicode="Y" horiz-adv-x="532" 
d="M484 621l1 -41q0 -153 -44.5 -264t-92 -164.5t-72 -77t-42.5 -35.5t-41 -26.5t-30 -17.5q12 14 26 32.5t46.5 66.5t72.5 150t40 210q0 53 -11 105l147 62v0zM47 551l145 29q-12 -48 -12 -98q0 -93 36.5 -159.5t76 -102t55.5 -44.5q-31 5 -92.5 33.5t-128.5 111.5t-80 230
v0z" />
    <glyph glyph-name="Z" unicode="Z" horiz-adv-x="568" 
d="M117 584q82 16 138 16q63 0 120 -13.5t84 -25.5l39 -20l-19 2l-34 1l-75 -5q-43 -5 -86 -18t-62 -21t-45 -22q-54 -26 -106 -69l46 175v0zM521 116l-68 -128q-91 53 -198 53q-68 0 -117 -15.5t-67 -24.5q31 35 112 81.5t215 46.5q58 0 123 -13v0zM47 105q36 71 67 121.5
t84.5 115.5t99 99.5t68 48.5t40.5 23q37 15 49 18q-11 -9 -33.5 -29t-60 -57.5t-95 -144.5t-69.5 -248l-150 53v0z" />
    <glyph glyph-name="bracketleft" unicode="[" horiz-adv-x="295" 
d="M98 -28q-49 123 -49 238q0 119 43 212.5t89 146t65 67.5q-8 -8 -16 -19t-29 -44t-47.5 -111.5t-26.5 -175.5q0 -129 50 -259l-79 -55v0z" />
    <glyph glyph-name="backslash" unicode="\" 
d="M46 739q20 -31 40.5 -64t35.5 -59l47 -81l57 -102q116 -206 196 -426l-83 -14q-26 130 -91 294l-63 155q-16 36 -28 64.5t-50 109.5t-61 123v0z" />
    <glyph glyph-name="bracketright" unicode="]" horiz-adv-x="272" 
d="M170 685q59 -133 59 -258q0 -86 -27.5 -169t-59.5 -133.5t-61 -82.5l-38 -39q6 7 14.5 19.5t29 46.5t45.5 113t25 165q0 117 -51 240l64 98v0z" />
    <glyph glyph-name="asciicircum" unicode="^" horiz-adv-x="241" 
d="M121 536l49 -30l-16 -36l-13 -26l-4 21l-3 19l-13 52v0zM194 121q-87 9 -122 56.5t-41 78.5l-1 24q0 73 24.5 104.5t41.5 39.5q-7 -7 -16.5 -20.5t-19.5 -30.5t-10 -54q0 -35 26 -76t130 -50l-12 -72v0zM211 438l-12 -71q-24 12 -54 12q-34 0 -52 -14q-22 -13 -28 -22
q5 25 35.5 60t110.5 35v0zM177 19l-53 -19q19 51 19 94l-1 20l-1 6l-1 3q10 -9 23.5 -32.5t13.5 -71.5v0z" />
    <glyph glyph-name="grave" unicode="`" horiz-adv-x="600" 
d="M286 607q16 -4 35.5 -13t46.5 -23q49 -28 55 -77l-104 -43q0 77 -14 113q-12 36 -19 43v0zM274 101l44 -10q27 -6 69 -6q99 0 164 50l-41 -141q-86 8 -134 30.5t-62 34.5t-24.5 23.5t-15.5 18.5v0zM424 324l-18 3l-40 2q-26 0 -73.5 -4.5t-109 -18t-130.5 -35.5l-4 86
q75 8 138 8q79 0 131 -9t75 -17.5t31 -14.5v0zM275 605q-10 -22 -25.5 -87t-15.5 -142q0 -44 8 -96t26 -102t50 -100l-131 -89q-35 128 -35 242q0 113 28 197t56 125.5t39 51.5v0z" />
    <glyph glyph-name="a" unicode="a" horiz-adv-x="407" 
d="M48 189q12 138 82 181.5t131 43.5q-13 -1 -42 -15.5t-58 -55.5t-29 -112q0 -19 1 -30t6 -37q6 -18 24 -47t47 -29q22 0 44 22l4 -13l-99 -98q-65 37 -89 84t-24 85l1 14l1 7v0zM286 456q0 -42 12 -125t26 -143t37 -137l-98 -42q-21 66 -21 158q0 43 4 86.5t16.5 105
t23.5 97.5v0z" />
    <glyph glyph-name="b" unicode="b" horiz-adv-x="413" 
d="M80 328l55 20l43 16l18 6l12 5l7 3l5 1l11 4l3 2l4 1l4 1l2 1l2 1l3 1l4 1l6 2l3 2l4 1l8 3l28 10q31 -17 45 -48q16 -29 16 -75t-20 -97t-59 -93.5t-100.5 -68.5t-133.5 -26q71 17 123 55.5t80 87t28 92.5q0 31 -13.5 53.5t-40.5 36.5q-29 13 -67 13t-80 -11v0zM106 8
q-20 47 -27.5 93t-12 77t-4.5 58q0 21 -2 58t-2 53v9l1 26v7v8v6q0 45 7 75t13 56t15 57q41 -11 66.5 -19.5l40.5 -13.5q-23 -71 -53.5 -228.5t-30.5 -295.5v-23q-7 -3 -11 -3v0z" />
    <glyph glyph-name="c" unicode="c" horiz-adv-x="375" 
d="M119 406l-10 -44q-6 -26 -6 -69q0 -48 15.5 -91.5t58 -71.5t114.5 -28l28 1l-40 -101q-125 12 -178.5 73t-53.5 145q0 39 12 83t29.5 72t30.5 31v0zM125 365q11 24 39.5 46.5t76.5 22.5q37 0 87 -18l-25 -108q-52 44 -109 44q-22 0 -38.5 -4.5t-32.5 -13.5l-14 -7l1 1
l1 1l1 1q4 15 13 35z" />
    <glyph glyph-name="d" unicode="d" horiz-adv-x="419" 
d="M153 394q16 0 52 -17l69 -35l47 -27q-33 10 -60 10q-40 0 -66 -19q-26 -17 -39.5 -48t-13.5 -70q0 -49 19 -87q18 -42 53 -70q35 -26 82 -26l32 3q-45 -8 -76 -8q-67 0 -113 26.5t-68.5 70.5t-22.5 96q0 61 28 115.5t77 85.5v0zM268 584q7 -1 33.5 -50.5t48 -122.5
t21.5 -152q0 -163 -103 -281l3 11l1 3l1 5l3 11l14 70q6 47 6 87q0 188 -118 346l90 73v0z" />
    <glyph glyph-name="e" unicode="e" horiz-adv-x="406" 
d="M235 242q21 30 21 71q0 34 -18 55.5t-53 21.5l-6 -1l-15 -1l30 14q22 8 49 8q74 0 95 -48t21 -65q0 -43 -51 -85t-181 -66v6l26 14q4 3 16.5 11.5t24.5 19.5q13 9 21 18t20 27v0zM124 260q0 -49 16.5 -84.5t58.5 -64.5t108 -29l30 1l18 3l-95 -98q-106 22 -159.5 78
t-53.5 105q0 98 41 156.5t82 77.5q39 20 61 24q-107 -71 -107 -169v0z" />
    <glyph glyph-name="f" unicode="f" horiz-adv-x="416" 
d="M300 490q0 50 -31 113l4 1l3 1l18 1q73 0 73 -79l-67 -37v0zM327 344l-24 4l-48 3q-92 0 -206 -34q27 27 86 59t112.5 45t113.5 13l-34 -90v0zM290 40l-111 -54q-33 114 -33 228q0 106 25.5 189t51.5 129t36 58q-15 -60 -23 -118.5t-8 -117.5q0 -117 23 -199t39 -115v0z
" />
    <glyph glyph-name="g" unicode="g" horiz-adv-x="415" 
d="M90 -134l51 86q36 -97 76 -97q15 0 25 10q11 7 15 15q-14 -58 -62 -58q-31 0 -62 17t-43 27v0zM215 391l85 66q68 -151 68 -282q0 -47 -15.5 -129.5t-49.5 -135.5q-33 -57 -61.5 -72.5t-47.5 -15.5q48 48 69 115t21 139q0 100 -26 189.5t-43 125.5v0zM123 239
q0 -86 49 -115t103 -29l-45 -101q-70 6 -111.5 40t-56.5 76t-15 79l1 20q10 84 48.5 130.5t74 61.5t51.5 16l-12 -14l-16 -19q-11 -12 -17.5 -20.5t-19.5 -28.5t-23.5 -46t-10.5 -50v0z" />
    <glyph glyph-name="h" unicode="h" horiz-adv-x="448" 
d="M186 6l-119 -23q-18 101 -18 192q0 119 27 208t43 116t27 44.5t19 25.5q-29 -136 -29 -252q0 -115 19 -198.5t31 -112.5v0zM390 42l-120 -50q-7 35 -7 73q0 98 33 182t56 121q-5 -26 -8 -57t-3 -63q0 -89 13 -124.5t21 -53.5t15 -28v0zM317 289q-10 8 -30 16
q-20 10 -51 10q-106 0 -166 -165q3 14 9.5 34t21.5 59t65 91.5t127 52.5q50 0 106 -25l-82 -73v0z" />
    <glyph glyph-name="i" unicode="i" horiz-adv-x="210" 
d="M48 582l73 43q18 -36 18 -67q0 -40 -20.5 -66t-35.5 -36q-3 28 -15 71l-20 55v0zM46 384l101 29q17 -63 17 -131q0 -110 -32 -182.5t-53 -100.5l3 104q0 133 -13 196.5t-23 84.5v0z" />
    <glyph glyph-name="j" unicode="j" horiz-adv-x="450" 
d="M44 -121l81 71q-13 -37 -13 -55q0 -32 14.5 -47t25.5 -19q-19 -4 -34 -4q-39 0 -55 19.5t-19 34.5v0zM249 397l104 28q21 -105 21 -188q0 -117 -23.5 -172.5t-42 -86t-49.5 -62.5t-63.5 -49t-46.5 -21q131 65 131 302q0 35 -3 74t-8.5 75t-11 63t-8.5 37v0zM257 582
l91 25l1 -20q0 -53 -26 -92t-44 -56q0 51 -8 88l-14 55v0z" />
    <glyph glyph-name="k" unicode="k" horiz-adv-x="444" 
d="M336 12q-5 0 -25.5 19t-46 57.5t-42.5 91.5t-17 118l3 53l2 -10l4 -19q5 -28 23 -66t58 -79.5t102 -71.5l-2 -3l-2 -4l-6 -8l-5 -8l-9 -15l-5 -7l-5 -8l-27 -40v0zM300 442l19 -21l25 -29l21 -26q4 -5 6 -8t3 -6q-68 -15 -111 -44.5t-67 -49.5t-49.5 -47t-55.5 -70
l-26 -39q15 43 29 75.5t35.5 68.5t39.5 62.5t33 44t31 34t39 36t28 19.5v0zM123 13l-65 -15q-5 30 -8 67t-3 74q0 75 12.5 162.5t34 158.5t52.5 118q-10 -55 -15 -108t-5 -109q0 -50 5 -108l13 -92l15 -75l1 -3l1 -3l2 -10l4 -18l2 -4l1 -3l1 -6l1 -6l1 -4l1 -3v-2z" />
    <glyph glyph-name="l" unicode="l" horiz-adv-x="270" 
d="M48 538l50 22l55 25q20 -37 37 -89.5t22.5 -91t7.5 -63t2 -58.5q0 -178 -73 -284q7 59 7 113q0 76 -12.5 143.5t-24 103t-18 54.5t-20.5 50l-2 6l-3 6l-2 4v2l-1 1l-4 9l-3 6l-3 7v1l-2 3l-3 8l-4 10l-2 4l-1 4l-3 4v0z" />
    <glyph glyph-name="m" unicode="m" horiz-adv-x="634" 
d="M469 9l9 49q4 32 4.5 50.5t0.5 29.5q0 56 -10 95q-9 44 -34.5 82.5t-70.5 58.5q22 0 71 -20t97.5 -88t48.5 -194l-5 -79l-111 16v0zM444 358l-2 1h-4l-13 1q-82 0 -153 -78q3 11 4.5 15t10 21.5t42.5 46.5q33 25 82 31l33 -38v0zM272 6l9 57q6 44 6 89q0 174 -91 220
q12 0 26 -5.5t47.5 -22.5t76 -86.5t42.5 -196.5q0 -35 -4 -71l-112 16v0zM262 353q-101 0 -173 -81l9 20q5 11 12 20t19 24t38 31.5t62 23.5l33 -38v0zM78 4l9 54q5 43 5 96q0 136 -43 256q17 -10 49 -45.5t64 -113t32 -189.5q0 -35 -4 -71l-112 13v0z" />
    <glyph glyph-name="n" unicode="n" horiz-adv-x="429" 
d="M273 14l7 51q0 14 2 48t2 35q0 191 -90 226q5 -1 13.5 -3.5t30 -11.5t55.5 -36.5t61.5 -82.5t27.5 -134q0 -40 -11 -100l-98 8v0zM260 353q-23 0 -73.5 -18t-104.5 -79q10 28 42.5 71.5t98.5 67.5l37 -42v0zM63 5l10 62q6 44 6 109q0 120 -32 234q5 -4 18.5 -21t27.5 -36
t27.5 -46.5t35.5 -87t22 -164.5l-3 -58l-112 8v0z" />
    <glyph glyph-name="o" unicode="o" horiz-adv-x="416" 
d="M282 243q-27 50 -68 65q-36 16 -67 16l70 101q82 -40 117 -94.5t35 -108.5l-3 -33q-11 -64 -42.5 -105t-60.5 -60t-46 -26q82 104 82 180q0 34 -17 65v0zM140 155q29 -34 68 -44.5t61 -10.5l-70 -101q-82 17 -117 75.5t-35 126.5l3 34q10 62 43 104t62.5 62t43.5 25
q-90 -95 -90 -183q0 -53 31 -88v0z" />
    <glyph glyph-name="p" unicode="p" horiz-adv-x="396" 
d="M205 -136l-113 -34q-46 129 -46 266q0 112 23 195.5t39 118.5v-28q0 -65 3 -118.5t10 -103t14.5 -89.5t17.5 -75t17 -54t15 -39l20 -39v0zM233 262q-18 18 -44 18q-38 0 -66 -22.5t-38.5 -32t-21.5 -21.5l131 180q53 -7 79.5 -30.5t39.5 -42.5t25 -52.5t12 -70.5
q0 -29 -6 -44q-18 -57 -49 -88q-28 -31 -64 -43.5t-70 -12.5l-36 3l-20 4q87 0 128 44q40 39 40 97q0 35 -12 66.5t-28 47.5v0z" />
    <glyph glyph-name="q" unicode="q" horiz-adv-x="416" 
d="M182 255q-48 -71 -48 -129q0 -79 89 -127q-55 0 -115 33t-60 139q0 40 7.5 72.5t29 64.5t64 60.5t98.5 36.5l93 -102l-10 -9q-6 -5 -7.5 -5h-2.5l-2 3q0 33 -35 33q-24 0 -50.5 -17.5t-50.5 -52.5v0zM368 -180l-115 -33q-17 77 -17 164q0 91 16 166t42.5 142.5t38.5 86.5
l24 42q-16 -68 -23 -126t-9 -90t-2 -68q0 -110 17 -186t28 -98v0z" />
    <glyph glyph-name="r" unicode="r" horiz-adv-x="376" 
d="M49 399l88 55q63 -87 63 -195q0 -89 -30 -158t-52 -100q11 64 11 112q0 107 -30.5 185t-49.5 101v0zM300 341q-9 10 -30 26q-23 15 -52 15q-26 0 -52 -17q8 23 36 56q30 33 95 33l30 -2l-27 -111v0z" />
    <glyph glyph-name="s" unicode="s" horiz-adv-x="416" 
d="M360 380l-31 -90q-68 65 -139 65q-38 0 -67.5 -16t-36 -31.5t-22.5 -15.5l-7 1l-4 1q71 141 175 141q45 0 81.5 -20.5t50.5 -34.5v0zM81 307q56 0 100.5 -11.5t93.5 -45.5t70.5 -78t24.5 -65l-88 -87q-12 101 -62.5 162t-98 84.5t-68.5 27.5q8 0 14.5 6.5t13.5 6.5v0z
M46 34l37 110q70 -64 134 -64q42 0 69 20q22 14 37 32q-65 -131 -170 -131q-37 0 -65.5 11.5t-41.5 21.5v0z" />
    <glyph glyph-name="t" unicode="t" horiz-adv-x="496" 
d="M230 -10q-11 23 -27.5 84t-16.5 144q0 189 104 368l-11 -86q-7 -49 -7 -133q0 -92 14.5 -172.5t48.5 -139.5l-105 -65v0zM450 431l-51 -106q-114 38 -213 38q-54 0 -93 -9l-47 -16q48 39 107 60.5t115 28.5t111 7l47 -1l10 -1l8 -1h6v0z" />
    <glyph glyph-name="u" unicode="u" horiz-adv-x="424" 
d="M210 39q17 0 42 11l51 25l28 14q-1 -16 -61 -52.5t-73 -36.5q-81 21 -115.5 88t-34.5 151q0 37 3.5 60t5 34.5t7.5 33.5t10 27l50 -18q25 -7 35.5 -11.5t14.5 -6.5q-13 -20 -18.5 -52t-7.5 -53t-2 -49q0 -61 15.5 -107.5t49.5 -57.5v0zM284 393q6 0 49 -17l44 -18
q-41 -100 -41 -221q0 -47 4 -72l8 -59l5 -24q-54 32 -77.5 97t-23.5 138q0 59 11 113.5t21 62.5v0z" />
    <glyph glyph-name="v" unicode="v" horiz-adv-x="437" 
d="M378 375q9 -45 9 -93q0 -105 -43.5 -168.5t-95 -87.5t-81.5 -24l7.5 7.5t20 16.5t38 38.5t40 71t17.5 109.5q0 55 -14 114l102 16v0zM171 -41q-6 41 -17.5 92t-35.5 133.5t-68 154.5l53 19l55 18q18 -26 28 -89.5t10 -144.5q0 -129 -25 -183v0z" />
    <glyph glyph-name="w" unicode="w" horiz-adv-x="622" 
d="M233 37l27 5l25 5q-13 -15 -37.5 -32.5t-58.5 -17.5l-20 2q-50 12 -86.5 74t-36.5 171q0 52 10 113l117 26l-20 -81q-12 -62 -12 -114q0 -141 92 -151v0zM417 23q6 -3 8 -6t8 -3l-16 -3l-26 -2q-30 0 -64 15t-56 59.5t-22 117.5q0 66 21 165l104 13q-2 -9 -10.5 -46.5
t-17 -77t-8.5 -104.5q0 -128 79 -128v0zM435 353l90 61q51 -74 51 -151q0 -79 -48 -147t-93 -104t-72 -52q113 133 113 257q0 51 -15 87t-26 49v0z" />
    <glyph glyph-name="x" unicode="x" horiz-adv-x="496" 
d="M189 406l16 -58q5 -17 16 -43.5t26 -59.5t35 -66t57 -82t108 -97q-16 2 -54 12q-40 13 -97.5 48.5t-113.5 107t-94 187.5l101 51v0zM49 80q8 2 22.5 7t37 14t75.5 48.5t105 115t85 184.5v-21q0 -40 -1.5 -57t-6.5 -47q-6 -55 -31 -124t-79 -127t-136 -82l-71 89v0z" />
    <glyph glyph-name="y" unicode="y" horiz-adv-x="440" 
d="M197 394l-14 -85q-9 -59 -9 -120q0 -171 86 -171q11 0 20.5 2t31.5 11q-9 -6 -38.5 -18.5t-60.5 -12.5q-35 0 -65 21t-49.5 78t-19.5 152q0 62 8 134l110 9v0zM27 -102l80 53q-3 -12 -3 -33q0 -42 15 -59t26 -22q-35 -19 -64 -19q-54 0 -54 80v0zM275 383l112 31l3 -82
q0 -142 -37.5 -247t-86.5 -162.5t-85 -82.5t-57 -33q91 77 125.5 195t34.5 246l-3 86l-6 49v0z" />
    <glyph glyph-name="z" unicode="z" horiz-adv-x="432" 
d="M371 13l-23 8q-23 5 -49 5q-69 0 -155 -33q15 18 34.5 36t51 41t69.5 35.5t85 12.5l-13 -105v0zM63 264l24 136q54 8 99 8q76 0 115.5 -16.5t49.5 -28.5q-79 0 -142.5 -28t-94 -43t-51.5 -28v0zM48 92q6 3 21 12.5t24.5 15t33 24t44.5 35.5t43.5 39t62.5 67t78 117
q0 -36 -15 -98t-69 -148.5t-161 -163.5l-62 100v0z" />
    <glyph glyph-name="braceleft" unicode="{" horiz-adv-x="295" 
d="M98 -28q-49 123 -49 238q0 119 43 212.5t89 146t65 67.5q-8 -8 -16 -19t-29 -44t-47.5 -111.5t-26.5 -175.5q0 -129 50 -259l-79 -55v0z" />
    <glyph glyph-name="braceright" unicode="}" horiz-adv-x="272" 
d="M170 685q59 -133 59 -258q0 -86 -27.5 -169t-59.5 -133.5t-61 -82.5l-38 -39q6 7 14.5 19.5t29 46.5t45.5 113t25 165q0 117 -51 240l64 98v0z" />
    <glyph glyph-name="asciitilde" unicode="~" horiz-adv-x="151" 
d="M91 482q24 -35 24 -70q0 -38 -19 -68.5t-30 -41.5l-6 63q-6 42 -24 64l55 53v0z" />
    <glyph glyph-name="nonbreakingspace" unicode="&#xa0;" horiz-adv-x="61" 
 />
    <glyph glyph-name="Lslash" horiz-adv-x="80" 
d="M-125 -121l81 71q-13 -37 -13 -55q0 -32 14.5 -47t25.5 -19q-19 -4 -34 -4q-39 0 -55 19.5t-19 34.5v0zM80 397l104 28q21 -105 21 -188q0 -117 -23.5 -172.5t-42 -86t-49.5 -62.5t-63.5 -49t-46.5 -21q131 65 131 302q0 35 -3 74t-8.5 75t-11 63t-8.5 37v0zM88 582
l91 25l1 -20q0 -53 -26 -92t-44 -56q0 51 -8 88l-14 55v0z" />
    <glyph glyph-name="lslash" horiz-adv-x="417" 
d="M197 394l-14 -85q-9 -59 -9 -120q0 -171 86 -171q11 0 20.5 2t31.5 11q-9 -6 -38.5 -18.5t-60.5 -12.5q-35 0 -65 21t-49.5 78t-19.5 152q0 62 8 134l110 9v0zM27 -102l80 53q-3 -12 -3 -33q0 -42 15 -59t26 -22q-35 -19 -64 -19q-54 0 -54 80v0zM275 383l112 31l3 -82
q0 -142 -37.5 -247t-86.5 -162.5t-85 -82.5t-57 -33q91 77 125.5 195t34.5 246l-3 86l-6 49v0z" />
    <glyph glyph-name="Scaron" horiz-adv-x="250" 
d="M44 -121l81 71q-13 -37 -13 -55q0 -32 14.5 -47t25.5 -19q-19 -4 -34 -4q-39 0 -55 19.5t-19 34.5v0zM249 397l104 28q21 -105 21 -188q0 -117 -23.5 -172.5t-42 -86t-49.5 -62.5t-63.5 -49t-46.5 -21q131 65 131 302q0 35 -3 74t-8.5 75t-11 63t-8.5 37v0zM257 582
l91 25l1 -20q0 -53 -26 -92t-44 -56q0 51 -8 88l-14 55v0z" />
    <glyph glyph-name="afii10017" unicode="&#x410;" horiz-adv-x="568" 
d="M116 -16l-3 73q0 145 37.5 255.5t90 184.5t89 106t57.5 46l-31 -44q-13 -20 -23.5 -38.5t-31.5 -60.5t-44 -118t-23 -151q0 -90 32 -165l-150 -88v0zM383 586q18 -27 36.5 -61t37.5 -81.5t32.5 -104t18 -80t4.5 -52.5q6 -69 6 -113v-12q0 -43 -3 -70l-5 -45l-19 79
q-11 47 -42 136.5t-76.5 180t-104.5 152.5l115 71v0zM467 260l-63 -72q-55 44 -118 64.5t-117 20.5q-23 0 -55.5 -4.5t-43.5 -10.5l-20 -7q2 3 11 11t19 16.5t52 26.5q42 15 97 15q103 0 238 -60v0z" />
    <glyph glyph-name="afii10018" unicode="&#x411;" horiz-adv-x="510" 
d="M368 27q-56 -29 -116 -29l-44 3l-19 4l-8 2q13 0 31.5 3.5t56 10.5t87.5 37t50 81q0 35 -25 75q-11 10 -48.5 27.5t-91.5 17.5q-85 0 -174 -54l199 160q77 -8 121 -37q44 -32 59 -71t15 -75l-2 -31l-1 -8v-3l-1 -2v-2l-1 -3v-1q-31 -74 -88 -105zM95 -25q-46 153 -46 289
q0 141 36 223.5t58 107.5q-7 -22 -17 -69t-10 -117q0 -84 23 -173t77 -175l-121 -86v0zM421 572l-16 -116q-78 54 -177 54q-62 0 -89.5 -9t-43.5 -14t-32 -13q8 14 30.5 37t79.5 46q53 24 144 24q53 0 104 -9v0z" />
    <glyph glyph-name="afii10019" unicode="&#x412;" horiz-adv-x="510" 
d="M368 27q-56 -29 -116 -29l-44 3l-19 4l-8 2q13 0 31.5 3.5t56 10.5t87.5 37t50 81q0 35 -25 75q-11 10 -48.5 27.5t-91.5 17.5q-85 0 -174 -54l199 160q77 -8 121 -37q44 -32 59 -71t15 -75l-2 -31l-1 -8v-3l-1 -2v-2l-1 -3v-1q-31 -74 -88 -105zM239 587
q144 -44 144 -148q0 -43 -19 -80t-30 -51l-24 6l2 4l2 6l6 19q6 21 6 45q0 53 -19.5 65.5t-27 15.5t-18.5 8.5t-39 5.5q-60 0 -124 -52l-2 24l143 132v0zM95 -25q-46 153 -46 289q0 141 36 223.5t58 107.5q-7 -22 -17 -69t-10 -117q0 -84 23 -173t77 -175l-121 -86v0z" />
    <glyph glyph-name="afii10020" unicode="&#x413;" 
d="M72 -17q-25 112 -25 219q0 151 29 218.5t44 96t27 42.5q-6 -12 -19.5 -60.5t-13.5 -118.5q0 -167 88 -343l-130 -54v0zM421 572l-16 -116q-78 54 -177 54q-62 0 -89.5 -9t-43.5 -14t-32 -13q8 14 30.5 37t79.5 46q53 24 144 24q53 0 104 -9v0z" />
    <glyph glyph-name="afii10050" unicode="&#x490;" 
d="M72 -17q-25 112 -25 219q0 151 29 218.5t44 96t27 42.5q-6 -12 -19.5 -60.5t-13.5 -118.5q0 -167 88 -343l-130 -54v0zM421 465q-51 -9 -104 -9q-91 0 -144 24q-57 23 -79.5 46t-30.5 37q16 -8 32 -13t43.5 -14t89.5 -9q99 0 177 54l16 -116v0z" />
    <glyph glyph-name="afii10021" unicode="&#x414;" horiz-adv-x="541" 
d="M339 -14q55 106 55 225q0 127 -48 225t-80 138q26 -7 82.5 -44t111 -132t54.5 -255q0 -55 -9 -126zM46 73q0 79 36.5 161.5t68.5 128.5t56.5 77.5t39.5 49t30 34t26 26.5l14 -26q-35 -32 -89 -117.5t-54 -204.5q0 -109 60 -214l-170 -10q-18 45 -18 95zM532 67l-76 -135
q-102 56 -222 56q-76 0 -131 -16.5t-76 -25.5q35 37 126 85.5t241 48.5q65 0 138 -13v0z" />
    <glyph glyph-name="afii10022" unicode="&#x415;" horiz-adv-x="523" 
d="M466 586l-38 -134q-108 81 -211 81q-40 0 -70.5 -11t-37.5 -16q12 25 60.5 59t163.5 34q58 0 133 -13v0zM412 383l-33 -119q-109 65 -203 65q-50 0 -78 -12.5t-37 -19.5q4 10 27 33.5t74.5 46t123.5 22.5q58 0 126 -16v0zM423 -1q-52 0 -93 10.5t-88 38t-65 48.5l3 22
q7 -3 20 -8t25 -8q27 -10 73 -10q104 0 178 80l-53 -173v0zM79 -1q-32 128 -32 236q0 40 4 80t16.5 93.5t34.5 100t43 73.5l25 31q-5 -11 -12.5 -38.5t-18 -69t-10.5 -122.5q0 -166 86 -292l-136 -92v0z" />
    <glyph glyph-name="afii10053" unicode="&#x404;" horiz-adv-x="430" 
d="M75 173q-27 83 -27 154q0 96 26.5 135.5t41 56t27.5 25.5q-15 -19 -38.5 -68.5t-23.5 -109.5q0 -78 67 -157t224 -79l-24 -134q-71 6 -127.5 31.5t-93.5 63.5t-52 82v0zM382 586l-28 -128q-51 22 -101 22q-65 0 -102.5 -28.5t-49.5 -46.5q4 18 20 50.5t34 53.5t55.5 52.5
t111.5 31.5q28 0 60 -7v0zM348 394l-28 -128q-51 22 -101 22q-65 0 -102.5 -28.5t-49.5 -46.5q4 18 20 50.5t34 53.5t55.5 52.5t111.5 31.5q28 0 60 -7v0z" />
    <glyph glyph-name="afii10024" unicode="&#x416;" horiz-adv-x="900" 
d="M355 173q-15 -44 -52 -82t-93.5 -63.5t-127.5 -31.5l-24 134q157 0 224 79t67 157q0 60 -23.5 109.5t-38.5 68.5q13 -9 27.5 -25.5t41 -56t26.5 -135.5q0 -71 -27 -154v0zM48 586q32 7 60 7q74 0 111.5 -31.5t55.5 -52.5t34 -53.5t20 -50.5q-12 18 -49.5 46.5
t-102.5 28.5q-50 0 -101 -22l-28 128v0zM550 172q-27 83 -27 154q0 96 26.5 135.5t41 56t27.5 25.5q-15 -19 -38.5 -68.5t-23.5 -109.5q0 -78 67 -157t224 -79l-24 -134q-71 6 -127.5 31.5t-93.5 63.5t-52 82v0zM857 585l-28 -128q-51 22 -101 22q-65 0 -102.5 -28.5
t-49.5 -46.5q4 18 20 50.5t34 53.5t55.5 52.5t111.5 31.5q28 0 60 -7v0zM508 -9l-148 64q30 88 43.5 186t13.5 184q0 70 -4 109l-8 61q15 -28 39 -90.5t49.5 -170t25.5 -216.5q0 -31 -3 -64t-8 -63v0z" />
    <glyph glyph-name="afii10025" unicode="&#x417;" horiz-adv-x="477" 
d="M234 358q112 1 154 -53.5t42 -107.5l-1 -17l-2 -8q-15 -55 -49.5 -91t-63.5 -50q-27 -15 -41 -18q16 18 44.5 62.5t28.5 91.5q0 31 -16 54q-14 24 -42.5 38.5t-54 22t-56.5 11.5v65h57zM295 313l-8 90q66 27 66 67q0 8 -4 20l-6 10q12 -6 33 -23.5t21 -47.5
q0 -55 -102 -116v0zM47 85l69 98q19 -80 68.5 -120.5t80.5 -51.5l-18 -8q-12 -4 -34 -4q-78 0 -166 86v0zM89 514q92 73 163 73q49 0 74.5 -27t31.5 -44l-16 9q-13 5 -33 5q-85 0 -191 -118l-29 102v0z" />
    <glyph glyph-name="afii10026" unicode="&#x418;" horiz-adv-x="526" 
d="M92 591l130 -58q-54 -96 -75.5 -197t-21.5 -190q0 -36 1 -53.5t4 -40.5l9 -53q-26 41 -58.5 130.5t-32.5 217.5q0 123 44 244v0zM389 571l88 -132q-86 -48 -164.5 -134t-126.5 -156l-65 -100q0 9 2 23t7.5 45t30 100.5t80.5 163t148 190.5v0zM459 -23l-141 67
q44 78 62 163q19 75 19 156q0 33 -2 57t-6 46l-13 59q10 -12 33 -52.5t45 -116.5t22 -188q0 -89 -19 -191v0z" />
    <glyph glyph-name="afii10055" unicode="&#x406;" horiz-adv-x="255" 
d="M196 598q5 -30 8 -63t3 -64q0 -109 -25.5 -216.5t-49.5 -170t-39 -90.5l8 61q4 39 4 109q0 86 -13.5 184t-43.5 186l148 64v0z" />
    <glyph glyph-name="afii10056" unicode="&#x407;" horiz-adv-x="255" 
d="M196 598q5 -30 8 -63t3 -64q0 -109 -25.5 -216.5t-49.5 -170t-39 -90.5l8 61q4 39 4 109q0 86 -13.5 184t-43.5 186l148 64v0zM94 624l-43 35q22 25 30.5 40t12 22t4.5 10q21 -29 21 -54q0 -21 -9.5 -34t-15.5 -19v0zM180 623l-43 35q22 25 30.5 40t12 22t4.5 10
q21 -29 21 -54q0 -21 -9.5 -34t-15.5 -19v0z" />
    <glyph glyph-name="afii10027" unicode="&#x419;" horiz-adv-x="526" 
d="M92 591l130 -58q-54 -96 -75.5 -197t-21.5 -190q0 -36 1 -53.5t4 -40.5l9 -53q-26 41 -58.5 130.5t-32.5 217.5q0 123 44 244v0zM389 571l88 -132q-86 -48 -164.5 -134t-126.5 -156l-65 -100q0 9 2 23t7.5 45t30 100.5t80.5 163t148 190.5v0zM459 -23l-141 67
q44 78 62 163q19 75 19 156q0 33 -2 57t-6 46l-13 59q10 -12 33 -52.5t45 -116.5t22 -188q0 -89 -19 -191v0zM392 725q-7 -65 -42 -91t-58 -31l-18 -1q-55 0 -78 18.5t-29 31.5q5 -6 15 -13t22.5 -14.5t40.5 -7.5q26 0 56.5 19.5t37.5 97.5l53 -9v0zM156 737l53 -9
q-9 -18 -9 -40q0 -25 10 -39q10 -16 17 -21q-19 4 -45 27t-26 82v0z" />
    <glyph glyph-name="afii10028" unicode="&#x41a;" horiz-adv-x="656" 
d="M609 39l-141 -57q0 77 -13 135.5t-48.5 121t-80 85.5t-68.5 26q8 0 24.5 -2.5t30.5 -4.5q38 -9 92.5 -37t111.5 -93t92 -174v0zM554 529q-49 -75 -90.5 -112.5t-69.5 -57.5t-69.5 -40.5t-87.5 -30.5t-93 -10q-39 0 -62 5l-35 7q38 3 98 23q69 20 154 85.5t134 185.5
l121 -55v0zM158 -16q-26 118 -26 235q0 158 36 251t60 124l-6 -47l-3 -87q0 -216 72 -411l-133 -65v0z" />
    <glyph glyph-name="afii10029" unicode="&#x41b;" horiz-adv-x="560" 
d="M339 -14q55 106 55 225q0 127 -48 225t-80 138q26 -7 82.5 -44t111 -132t54.5 -255q0 -55 -9 -126zM46 73q0 79 36.5 161.5t68.5 128.5t56.5 77.5t39.5 49t30 34t26 26.5l14 -26q-35 -32 -89 -117.5t-54 -204.5q0 -109 60 -214l-170 -10q-18 45 -18 95z" />
    <glyph glyph-name="afii10030" unicode="&#x41c;" horiz-adv-x="671" 
d="M72 -13q-24 92 -24 185q0 99 24 198t47.5 154.5t36.5 76.5q-8 -28 -15.5 -66.5t-10.5 -72t-3 -73.5q0 -189 84 -353l-139 -49v0zM148 567q13 -5 33.5 -18t38.5 -28t50 -47.5t77 -112t79 -198.5l-136 -172q14 70 14 136q0 116 -37 215t-74 151t-51 66q0 8 6 8v0zM533 592
l44 -132q-74 -29 -136 -80.5t-103.5 -102t-69.5 -93.5l-32 -53l15 70q9 33 18 58.5t33 81t84 130.5t147 121v0zM599 -17l-117 44q59 127 59 240q0 69 -14 110t-24.5 63t-26 44.5t-25.5 30.5q17 -12 56 -53t77.5 -125.5t38.5 -190.5q0 -76 -24 -163v0z" />
    <glyph glyph-name="afii10031" unicode="&#x41d;" horiz-adv-x="530" 
d="M86 -15q-40 124 -40 245q0 129 32.5 221t56.5 130q-3 -10 -10 -50.5t-7 -99.5q0 -16 1 -36.5t3.5 -44t6 -44.5t10 -44.5t14 -47t19.5 -55.5t49 -93l-135 -81v0zM473 583q11 -71 11 -140q0 -103 -21 -186t-48.5 -140t-48.5 -85l-30 -38q13 28 30 95.5t17 168.5
q0 32 -3 68.5t-8.5 70.5t-14.5 71.5t-22 75.5l138 39v0zM400 367l-68 -126q-88 82 -164 82q-28 0 -48 -9q-18 -10 -24 -16q4 10 19 25.5t64 32.5t126 17q48 0 95 -6v0z" />
    <glyph glyph-name="afii10032" unicode="&#x41e;" horiz-adv-x="559" 
d="M308 591q89 -39 133.5 -98.5t58.5 -105.5q3 -15 7.5 -33.5t4.5 -31.5q0 -117 -49.5 -191t-85 -94.5t-52 -28.5t-31.5 -13q30 24 74.5 89t44.5 157v27q-3 15 -4.5 24.5t-4.5 20t-12 31.5q-11 34 -48.5 77.5t-99.5 60.5l64 109v0zM274 -15q-91 24 -141.5 71t-66 82.5
t-18.5 53.5l-1 33q0 97 32.5 169t75.5 112t77 57l47 20q-32 -21 -83 -90t-51 -176q0 -42 9 -78l24 -47q20 -32 65.5 -64.5t109.5 -32.5l-79 -110v0z" />
    <glyph glyph-name="afii10033" unicode="&#x41f;" horiz-adv-x="544" 
d="M384 -9q-72 135 -72 262q0 76 21 136t44 93.5t36 46.5l-6 -39l-3 -69q0 -50 7 -105q10 -58 24 -105t29 -81t31 -63zM111 -6q-62 124 -62 248q0 38 6 74.5t23 87.5t46.5 97t51.5 69l32 33q-13 -37 -30 -111.5t-17 -167.5q0 -68 14.5 -134.5t46.5 -119.5zM446 492
q-28 -5 -44 -6.5t-55 -1.5q-89 0 -147.5 27.5t-78.5 53.5q-22 25 -27 40q8 -5 25 -14t50.5 -23t92.5 -14q70 0 123 38z" />
    <glyph glyph-name="afii10034" unicode="&#x420;" horiz-adv-x="459" 
d="M125 503q86 80 154 80l16 -1l8 -3q66 -15 87 -67t21 -94q-1 8 -8.5 26t-26 36t-46.5 18q-63 0 -153 -106l-52 111v0zM201 169l-77 129q52 -29 94 -29q52 0 90.5 32.5t53.5 58.5t20.5 37t9.5 21l1 -8v-16q0 -21 -3 -41.5t-13.5 -56.5t-53 -76t-122.5 -51v0zM82 -15
q-16 60 -25 123.5t-9 125.5q0 140 33.5 232t55.5 125l-16 -74q-10 -53 -10 -125q0 -63 9 -119t25.5 -104.5t31 -78t34.5 -61.5l-129 -44v0z" />
    <glyph glyph-name="afii10035" unicode="&#x421;" horiz-adv-x="430" 
d="M75 173q-27 83 -27 154q0 96 26.5 135.5t41 56t27.5 25.5q-15 -19 -38.5 -68.5t-23.5 -109.5q0 -78 67 -157t224 -79l-24 -134q-71 6 -127.5 31.5t-93.5 63.5t-52 82v0zM382 586l-28 -128q-51 22 -101 22q-65 0 -102.5 -28.5t-49.5 -46.5q4 18 20 50.5t34 53.5t55.5 52.5
t111.5 31.5q28 0 60 -7v0z" />
    <glyph glyph-name="afii10036" unicode="&#x422;" horiz-adv-x="528" 
d="M168 -21q-19 64 -19 136q0 100 23.5 171t39.5 108t32 65t27 47.5t24 36.5l-33 -104q-9 -38 -14 -76.5t-5 -80.5q0 -157 89 -237l-164 -66v0zM48 462l68 127q75 -40 172 -40q39 0 87 8t70 16l35 12q-13 -21 -43 -54.5t-92 -68t-142 -34.5q-78 0 -155 34v0z" />
    <glyph glyph-name="afii10037" unicode="&#x423;" horiz-adv-x="532" 
d="M484 621l1 -41q0 -153 -44.5 -264t-92 -164.5t-72 -77t-42.5 -35.5t-41 -26.5t-30 -17.5q12 14 26 32.5t46.5 66.5t72.5 150t40 210q0 53 -11 105l147 62v0zM47 551l145 29q-12 -48 -12 -98q0 -93 36.5 -159.5t76 -102t55.5 -44.5q-31 5 -92.5 33.5t-128.5 111.5t-80 230
v0z" />
    <glyph glyph-name="afii10038" unicode="&#x424;" horiz-adv-x="751" 
d="M334 503l-52 -111q-90 106 -153 106q-28 0 -46.5 -18t-26 -36t-8.5 -26q0 42 21 94t87 67l8 3l16 1q68 0 154 -80v0zM258 169q-80 11 -122.5 51t-53 76t-13.5 56.5t-3 41.5v16l1 8q4 -10 9.5 -21t20.5 -37t53.5 -58.5t90.5 -32.5q42 0 94 29l-77 -129v0zM377 -15l-129 44
q20 32 34.5 61.5t31 78t25.5 104.5t9 119q0 72 -10 125l-16 74q22 -33 55.5 -125t33.5 -232q0 -62 -9 -125.5t-25 -123.5v0zM420 503q86 80 154 80l16 -1l8 -3q66 -15 87 -67t21 -94q-1 8 -8.5 26t-26 36t-46.5 18q-63 0 -153 -106l-52 111v0zM496 169l-77 129
q52 -29 94 -29q52 0 90.5 32.5t53.5 58.5t20.5 37t9.5 21l1 -8v-16q0 -21 -3 -41.5t-13.5 -56.5t-53 -76t-122.5 -51v0z" />
    <glyph glyph-name="afii10039" unicode="&#x425;" horiz-adv-x="600" 
d="M119 498l140 114l-1 -41q0 -127 41 -233.5t95 -177t98 -109.5t62 -51q-21 8 -66 33t-116.5 83.5t-142 156.5t-110.5 225v0zM539 529q-26 -143 -101 -249t-158.5 -168.5t-128 -84.5t-67.5 -32t-38 -15q10 7 30.5 25.5t48.5 43.5t96.5 110t109 174t56.5 146t16 118l136 -68
v0z" />
    <glyph glyph-name="afii10040" unicode="&#x426;" horiz-adv-x="544" 
d="M495 529q-16 -29 -31 -63t-29 -81t-24 -105q-7 -55 -7 -105l3 -69l6 -39q-13 13 -36 46.5t-44 93.5t-21 136q0 127 72 262zM222 526q-32 -53 -46.5 -119.5t-14.5 -134.5q0 -93 17 -167.5t30 -111.5l-32 33q-22 23 -51.5 69t-46.5 97t-23 87.5t-6 74.5q0 124 62 248z
M440 3q-108 39 -178 39q-59 0 -92.5 -14t-50.5 -23t-25 -14q5 15 27 40q20 26 78.5 53.5t147.5 27.5q39 0 55 -1.5t44 -6.5zM446 104q125 -45 65 -113.5t-83.5 -77t-39.5 -10.5q58 85 58 201v0z" />
    <glyph glyph-name="afii10041" unicode="&#x427;" horiz-adv-x="530" 
d="M181 581q40 -62 40 -122q0 -65 -32.5 -111t-56.5 -65q3 5 10 25.5t7 49.5q0 8 -1 18.5t-3.5 22t-6 22t-10 22.5t-14 23.5t-19.5 27.5t-49 47l135 40v0zM473 583q11 -71 11 -140q0 -103 -21 -186t-48.5 -140t-48.5 -85l-30 -38q13 28 30 95.5t17 168.5q0 32 -3 68.5
t-8.5 70.5t-14.5 71.5t-22 75.5l138 39v0zM400 367l-68 -126q-88 82 -164 82q-28 0 -48 -9q-18 -10 -24 -16q4 10 19 25.5t64 32.5t126 17q48 0 95 -6v0z" />
    <glyph glyph-name="afii10042" unicode="&#x428;" horiz-adv-x="769" 
d="M495 529q-16 -29 -31 -63t-29 -81t-24 -105q-7 -55 -7 -105l3 -69l6 -39q-13 13 -36 46.5t-44 93.5t-21 136q0 127 72 262zM222 526q-32 -53 -46.5 -119.5t-14.5 -134.5q0 -93 17 -167.5t30 -111.5l-32 33q-22 23 -51.5 69t-46.5 97t-23 87.5t-6 74.5q0 124 62 248z
M616 4q-95 38 -221 38q-106 0 -166 -14t-90.5 -23t-44.5 -14q9 15 48 40q36 26 141 53.5t265 27.5q69 0 98 -1.5t79 -6.5zM721 525q-32 -53 -46.5 -119.5t-14.5 -134.5q0 -93 17 -167.5t30 -111.5l-32 33q-22 23 -51.5 69t-46.5 97t-23 87.5t-6 74.5q0 124 62 248z" />
    <glyph glyph-name="afii10043" unicode="&#x429;" horiz-adv-x="769" 
d="M495 529q-16 -29 -31 -63t-29 -81t-24 -105q-7 -55 -7 -105l3 -69l6 -39q-13 13 -36 46.5t-44 93.5t-21 136q0 127 72 262zM222 526q-32 -53 -46.5 -119.5t-14.5 -134.5q0 -93 17 -167.5t30 -111.5l-32 33q-22 23 -51.5 69t-46.5 97t-23 87.5t-6 74.5q0 124 62 248z
M616 4q-95 38 -221 38q-106 0 -166 -14t-90.5 -23t-44.5 -14q9 15 48 40q36 26 141 53.5t265 27.5q69 0 98 -1.5t28 -123.5zM721 525q-32 -53 -46.5 -119.5t-14.5 -134.5q0 -93 17 -167.5t30 -111.5l-32 33q-22 23 -51.5 69t-46.5 97t-23 87.5t-6 74.5q0 124 62 248z
M676 109l80 -1q1 -112 -37 -146.5t-61.5 -43t-39.5 -10.5q58 85 58 201v0z" />
    <glyph glyph-name="afii10046" unicode="&#x42c;" horiz-adv-x="510" 
d="M368 27q-56 -29 -116 -29l-44 3l-19 4l-8 2q13 0 31.5 3.5t56 10.5t87.5 37t50 81q0 35 -25 75q-11 10 -48.5 27.5t-91.5 17.5q-85 0 -174 -54l199 160q77 -8 121 -37q44 -32 59 -71t15 -75l-2 -31l-1 -8v-3l-1 -2v-2l-1 -3v-1q-31 -74 -88 -105zM95 -25q-46 153 -46 289
q0 141 36 223.5t58 107.5q-7 -22 -17 -69t-10 -117q0 -84 23 -173t77 -175l-121 -86v0z" />
    <glyph glyph-name="afii10048" unicode="&#x42e;" horiz-adv-x="800" 
d="M196 598q5 -30 8 -63t3 -64q0 -109 -25.5 -216.5t-49.5 -170t-39 -90.5l8 61q4 39 4 109q0 86 -13.5 184t-43.5 186l148 64v0zM549 590q89 -39 133.5 -98.5t58.5 -105.5q3 -15 7.5 -33.5t4.5 -31.5q0 -117 -49.5 -191t-85 -94.5t-52 -28.5t-31.5 -13q30 24 74.5 89
t44.5 157v27q-3 15 -4.5 24.5t-4.5 20t-12 31.5q-11 34 -48.5 77.5t-99.5 60.5l64 109v0zM515 -16q-91 24 -141.5 71t-66 82.5t-18.5 53.5l-1 33q0 97 32.5 169t75.5 112t77 57l47 20q-32 -21 -83 -90t-51 -176q0 -42 9 -78l24 -47q20 -32 65.5 -64.5t109.5 -32.5l-79 -110
v0zM287 337l-10 -89q-17 12 -36 12q-7 0 -14.5 -1.5t-17.5 -5.5l-20 -13q3 13 9 33t26 45q19 22 45 22l18 -3v0z" />
    <glyph glyph-name="afii10049" unicode="&#x42f;" horiz-adv-x="527" 
d="M328 168q-82 9 -124.5 50t-53 78t-10.5 56q16 -19 55 -49t83 -30l3 -1h4l13 -1q61 0 118 62l5 -16l-93 -149v0zM294 585l123 -110l-5 -31q-48 33 -115 33l-32 -2l-9 -1l-4 -1l-4 -1q-129 -17 -129 -114l3 -31l6 -19q-8 14 -21.5 49t-13.5 74q0 70 51.5 112t149.5 42v0z
M452 -13l-125 53q21 37 37 77t29.5 100t13.5 146q0 81 -11 142t-20 89q5 -7 18 -30t27 -52.5t36.5 -112t22.5 -190.5q0 -113 -28 -222v0zM47 32q38 92 92.5 137t95 57t61.5 12q-14 -7 -36 -26.5t-36.5 -40t-37 -63.5t-22.5 -126l-117 50v0z" />
    <glyph glyph-name="afii10023" unicode="&#x401;" horiz-adv-x="523" 
d="M466 586l-38 -134q-108 81 -211 81q-40 0 -70.5 -11t-37.5 -16q12 25 60.5 59t163.5 34q58 0 133 -13v0zM412 383l-33 -119q-109 65 -203 65q-50 0 -78 -12.5t-37 -19.5q4 10 27 33.5t74.5 46t123.5 22.5q58 0 126 -16v0zM423 -1q-52 0 -93 10.5t-88 38t-65 48.5l3 22
q7 -3 20 -8t25 -8q27 -10 73 -10q104 0 178 80l-53 -173v0zM79 -1q-32 128 -32 236q0 40 4 80t16.5 93.5t34.5 100t43 73.5l25 31q-5 -11 -12.5 -38.5t-18 -69t-10.5 -122.5q0 -166 86 -292l-136 -92v0zM244 620l-43 34q22 26 31 41t12 21.5t4 10.5q21 -30 21 -54
q0 -21 -9 -34.5t-16 -18.5v0zM330 619l-43 34q22 26 31 41t12 21.5t5 10.5q20 -30 20 -55q0 -20 -9 -33.5t-16 -18.5v0z" />
    <glyph glyph-name="afii10044" unicode="&#x42a;" horiz-adv-x="564" 
d="M472 26q-56 -29 -116 -29l-44 3l-19 4l-8 2q13 0 31.5 3.5t56 10.5t87.5 37t50 81q0 35 -25 75q-11 10 -48.5 27.5t-91.5 17.5q-85 0 -174 -54l199 160q77 -8 121 -37q44 -32 59 -71t15 -75l-2 -31l-1 -8v-3l-1 -2v-2l-1 -3v-1q-31 -74 -88 -105zM199 -26
q-46 153 -46 289q0 141 36 223.5t58 107.5q-7 -22 -17 -69t-10 -117q0 -84 23 -173t77 -175l-121 -86v0zM247 594l-21 -89q-33 12 -72 12q-15 0 -29.5 -1.5t-35.5 -5.5l-40 -13q5 13 18 33t52 45q38 22 92 22l36 -3v0z" />
    <glyph glyph-name="afii10045" unicode="&#x42b;" horiz-adv-x="699" 
d="M368 27q-56 -29 -116 -29l-44 3l-19 4l-8 2q13 0 31.5 3.5t56 10.5t87.5 37t50 81q0 35 -25 75q-11 10 -48.5 27.5t-91.5 17.5q-85 0 -174 -54l199 160q77 -8 121 -37q44 -32 59 -71t15 -75l-2 -31l-1 -8v-3l-1 -2v-2l-1 -3v-1q-31 -74 -88 -105zM95 -25q-46 153 -46 289
q0 141 36 223.5t58 107.5q-7 -22 -17 -69t-10 -117q0 -84 23 -173t77 -175l-121 -86v0zM634 598q5 -30 8 -63t3 -64q0 -109 -25.5 -216.5t-49.5 -170t-39 -90.5l8 61q4 39 4 109q0 86 -13.5 184t-43.5 186l148 64v0z" />
    <glyph glyph-name="afii10047" unicode="&#x42d;" horiz-adv-x="430" 
d="M355 173q-15 -44 -52 -82t-93.5 -63.5t-127.5 -31.5l-24 134q157 0 224 79t67 157q0 60 -23.5 109.5t-38.5 68.5q13 -9 27.5 -25.5t41 -56t26.5 -135.5q0 -71 -27 -154v0zM48 586q32 7 60 7q74 0 111.5 -31.5t55.5 -52.5t34 -53.5t20 -50.5q-12 18 -49.5 46.5
t-102.5 28.5q-50 0 -101 -22l-28 128v0zM82 394q32 7 60 7q74 0 111.5 -31.5t55.5 -52.5t34 -53.5t20 -50.5q-12 18 -49.5 46.5t-102.5 28.5q-50 0 -101 -22l-28 128v0z" />
    <glyph glyph-name="afii10065" unicode="&#x430;" horiz-adv-x="407" 
d="M48 189q12 138 82 181.5t131 43.5q-13 -1 -42 -15.5t-58 -55.5t-29 -112q0 -19 1 -30t6 -37q6 -18 24 -47t47 -29q22 0 44 22l4 -13l-99 -98q-65 37 -89 84t-24 85l1 14l1 7v0zM286 456q0 -42 12 -125t26 -143t37 -137l-98 -42q-21 66 -21 158q0 43 4 86.5t16.5 105
t23.5 97.5v0z" />
    <glyph glyph-name="afii10066" unicode="&#x431;" horiz-adv-x="413" 
d="M80 229l55 14l43 11l18 5l12 3l7 2l5 1l11 3l3 1l4 1l4 1h2l2 1l3 1h4l6 2l3 1l4 1l8 2l28 7q31 -12 45 -34q16 -20 16 -52t-20 -67.5t-59 -65.5t-100.5 -48t-133.5 -18q71 12 123 39t80 60.5t28 64.5q0 22 -13.5 37.5t-40.5 25.5q-29 9 -67 9t-80 -8v0zM106 6
q-20 33 -27.5 65t-12 53.5t-4.5 40.5q0 15 -2 40.5t-2 37.5v6l1 18v5v6v4q0 31 7 52l13 39t15 40q41 -8 66.5 -14t40.5 -9q-23 -50 -53.5 -160t-30.5 -206v-16q-7 -2 -11 -2v0zM328 384l-24 4l-48 3q-92 0 -206 -34q27 27 86 59t112.5 45t113.5 13l-34 -90v0z" />
    <glyph glyph-name="afii10067" unicode="&#x432;" horiz-adv-x="399" 
d="M291 15q-42 -22 -88 -22l-33 2l-15 3l-6 2q10 0 24 2.5t42.5 7.5t66.5 28t38 62q0 27 -19 57q-8 8 -36.5 21.5t-69.5 13.5q-65 0 -132 -42l151 123q58 -7 92 -29q33 -24 44.5 -54t11.5 -57l-2 -24v-6v-2l-1 -2v-1l-1 -2v-1q-23 -57 -67 -80zM193 442q110 -34 110 -113
q0 -33 -14.5 -61t-22.5 -39l-19 5l2 3l1 4l5 15q4 16 4 34q0 41 -14.5 50.5t-20.5 11.5t-14 6.5t-30 4.5q-45 0 -94 -40l-1 18l108 101v0zM84 -25q-35 117 -35 220q0 108 27.5 171t43.5 82q-5 -17 -12.5 -52.5t-7.5 -89.5q0 -64 17.5 -132t58.5 -133l-92 -66v0z" />
    <glyph glyph-name="afii10068" unicode="&#x433;" horiz-adv-x="376" 
d="M49 399l88 55q63 -87 63 -195q0 -89 -30 -158t-52 -100q11 64 11 112q0 107 -30.5 185t-49.5 101v0zM328 384l-24 4l-48 3q-92 0 -206 -34q27 27 86 59t112.5 45t113.5 13l-34 -90v0z" />
    <glyph glyph-name="afii10098" unicode="&#x491;" horiz-adv-x="373" 
d="M200 56l-88 -55q-63 87 -63 195q0 89 30 158t52 100q-11 -64 -11 -112q0 -107 30.5 -185t49.5 -101v0zM358 328h-5l-6 -1l-8 -1l-36 -1q-42 0 -85.5 7t-89 28.5t-82.5 60.5l36 -16q30 -9 72 -9q77 0 165 38l39 -106v0z" />
    <glyph glyph-name="afii10069" unicode="&#x434;" horiz-adv-x="462" 
d="M59 -40q-9 45 -9 93q0 105 43.5 168.5t95 87.5t81.5 24l-7.5 -7.5t-20 -16.5t-38 -38.5t-40 -71t-17.5 -109.5q0 -55 14 -114l-102 -16v0zM266 376q6 -41 17.5 -92t35.5 -133.5t68 -154.5l-53 -19l-55 -18q-18 26 -28 89.5t-10 144.5q0 129 25 183v0zM431 38l-51 -105
q-114 38 -213 38q-54 0 -93 -9l-47 -16q48 39 107 60t115 28t111 7l47 -1l10 -1l8 -1h6v0z" />
    <glyph glyph-name="afii10070" unicode="&#x435;" horiz-adv-x="406" 
d="M235 242q21 30 21 71q0 34 -18 55.5t-53 21.5l-6 -1l-15 -1l30 14q22 8 49 8q74 0 95 -48t21 -65q0 -43 -51 -85t-181 -66v6l26 14q4 3 16.5 11.5t24.5 19.5q13 9 21 18t20 27v0zM124 260q0 -49 16.5 -84.5t58.5 -64.5t108 -29l30 1l18 3l-95 -98q-106 22 -159.5 78
t-53.5 105q0 98 41 156.5t82 77.5q39 20 61 24q-107 -71 -107 -169v0z" />
    <glyph glyph-name="afii10101" unicode="&#x454;" horiz-adv-x="375" 
d="M119 406l-10 -44q-6 -26 -6 -69q0 -48 15.5 -91.5t58 -71.5t114.5 -28l28 1l-40 -101q-125 12 -178.5 73t-53.5 145q0 39 12 83t29.5 72t30.5 31v0zM125 365q11 24 39.5 46.5t76.5 22.5q37 0 87 -18l-25 -108q-52 44 -109 44q-22 0 -38.5 -4.5t-32.5 -13.5l-14 -7l1 1
l1 1l1 1q4 15 13 35zM266 170q-9 10 -30 26q-23 15 -52 15q-26 0 -52 -17q8 23 36 56q30 33 95 33l30 -2l-27 -111v0z" />
    <glyph glyph-name="afii10072" unicode="&#x436;" horiz-adv-x="749" 
d="M256 406q13 -3 30.5 -31t29.5 -72t12 -83q0 -84 -53.5 -145t-178.5 -73l-40 101l28 -1q72 0 114.5 28t58 71.5t15.5 91.5q0 43 -6 69l-10 44v0zM263 330l1 -1l1 -1l1 -1l-14 7q-16 9 -32.5 13.5t-38.5 4.5q-57 0 -109 -44l-25 108q50 18 87 18q48 0 76.5 -22.5
t39.5 -46.5q9 -20 13 -35zM491 406l-10 -44q-6 -26 -6 -69q0 -48 15.5 -91.5t58 -71.5t114.5 -28l28 1l-40 -101q-125 12 -178.5 73t-53.5 145q0 39 12 83t29.5 72t30.5 31v0zM497 365q11 24 39.5 46.5t76.5 22.5q37 0 87 -18l-25 -108q-52 44 -109 44q-22 0 -38.5 -4.5
t-32.5 -13.5l-14 -7l1 1l1 1l1 1q4 15 13 35zM299 30q10 21 23 84.5t13 196.5l-3 104q21 -28 53 -100.5t32 -182.5q0 -68 -17 -131l-101 29v0z" />
    <glyph glyph-name="afii10073" unicode="&#x437;" horiz-adv-x="477" 
d="M195 312q97 -23 131.5 -67t34.5 -87l-1 -13l-1 -7q-13 -44 -41 -73t-52 -40q-22 -12 -34 -15q13 15 36.5 50.5t23.5 73.5q0 25 -13 44q-11 19 -34.5 30.5t-44.5 17.5t-46 10l41 76v0zM250 252l-6 72q54 22 54 54q0 6 -3 16l-5 8q10 -5 27 -19t17 -38q0 -44 -84 -93v0z
M47 68l57 79q15 -64 55.5 -96.5t66.5 -41.5l-15 -7q-10 -3 -28 -3q-64 0 -136 69v0zM81 413q76 59 134 59q40 0 61 -21.5t26 -35.5l-13 7q-11 4 -27 4q-70 0 -157 -95l-24 82v0z" />
    <glyph glyph-name="afii10074" unicode="&#x438;" horiz-adv-x="424" 
d="M210 39q17 0 42 11l51 25l28 14q-1 -16 -61 -52.5t-73 -36.5q-81 21 -115.5 88t-34.5 151q0 37 3.5 60t5 34.5t7.5 33.5t10 27l50 -18q25 -7 35.5 -11.5t14.5 -6.5q-13 -20 -18.5 -52t-7.5 -53t-2 -49q0 -61 15.5 -107.5t49.5 -57.5v0zM284 393q6 0 49 -17l44 -18
q-41 -100 -41 -221q0 -47 4 -72l8 -59l5 -24q-54 32 -77.5 97t-23.5 138q0 59 11 113.5t21 62.5v0z" />
    <glyph glyph-name="afii10103" unicode="&#x456;" horiz-adv-x="210" 
d="M48 582l73 43q18 -36 18 -67q0 -40 -20.5 -66t-35.5 -36q-3 28 -15 71l-20 55v0zM46 384l101 29q17 -63 17 -131q0 -110 -32 -182.5t-53 -100.5l3 104q0 133 -13 196.5t-23 84.5v0z" />
    <glyph glyph-name="afii10104" unicode="&#x457;" horiz-adv-x="275" 
d="M31 581l73 43q18 -36 18 -67q0 -40 -20.5 -66t-35.5 -36q-3 28 -15 71l-20 55v0zM84 385l101 29q17 -63 17 -131q0 -110 -32 -182.5t-53 -100.5l3 104q0 133 -13 196.5t-23 84.5v0zM145 582l73 43q18 -36 18 -67q0 -40 -20.5 -66t-35.5 -36q-3 28 -15 71l-20 55v0z" />
    <glyph glyph-name="afii10075" unicode="&#x439;" horiz-adv-x="424" 
d="M210 39q17 0 42 11l51 25l28 14q-1 -16 -61 -52.5t-73 -36.5q-81 21 -115.5 88t-34.5 151q0 37 3.5 60t5 34.5t7.5 33.5t10 27l50 -18q25 -7 35.5 -11.5t14.5 -6.5q-13 -20 -18.5 -52t-7.5 -53t-2 -49q0 -61 15.5 -107.5t49.5 -57.5v0zM284 393q6 0 49 -17l44 -18
q-41 -100 -41 -221q0 -47 4 -72l8 -59l5 -24q-54 32 -77.5 97t-23.5 138q0 59 11 113.5t21 62.5v0zM315 538q-5 -49 -31 -68t-43 -23l-13 -1q-41 0 -58 14t-22 24q4 -5 11.5 -10t17 -10.5t29.5 -5.5t42.5 14t27.5 72l39 -6v0zM140 546l40 -6q-7 -14 -7 -30q0 -18 7 -29
q8 -12 13 -15q-14 3 -33.5 20t-19.5 60v0z" />
    <glyph glyph-name="afii10076" unicode="&#x43a;" horiz-adv-x="444" 
d="M336 12q-5 0 -25.5 19t-46 57.5t-42.5 91.5t-17 118l3 53l2 -10l4 -19q5 -28 23 -66t58 -79.5t102 -71.5l-2 -3l-2 -4l-6 -8l-5 -8l-9 -15l-5 -7l-5 -8l-27 -40v0zM300 442l19 -21l25 -29l21 -26q4 -5 6 -8t3 -6q-68 -15 -111 -44.5t-67 -49.5t-49.5 -47t-55.5 -70
l-26 -39q15 43 29 75.5t35.5 68.5t39.5 62.5t33 44t31 34t39 36t28 19.5v0zM123 9l-65 -11q-5 23 -8 51t-3 56q0 58 12.5 124.5t34 120.5t52.5 90q-10 -42 -15 -82.5t-5 -82.5q0 -38 5 -83l13 -70l15 -57l1 -2l1 -3l2 -7l4 -14l2 -3l1 -2l1 -5l1 -4l1 -3l1 -3v-1z" />
    <glyph glyph-name="afii10077" unicode="&#x43b;" horiz-adv-x="437" 
d="M59 -40q-9 45 -9 93q0 105 43.5 168.5t95 87.5t81.5 24l-7.5 -7.5t-20 -16.5t-38 -38.5t-40 -71t-17.5 -109.5q0 -55 14 -114l-102 -16v0zM266 376q6 -41 17.5 -92t35.5 -133.5t68 -154.5l-53 -19l-55 -18q-18 26 -28 89.5t-10 144.5q0 129 25 183v0z" />
    <glyph glyph-name="afii10078" unicode="&#x43c;" horiz-adv-x="622" 
d="M389 337l-27 -5l-25 -5q13 15 37.5 32.5t58.5 17.5l20 -2q50 -12 86.5 -74t36.5 -171q0 -52 -10 -113l-117 -26l20 81q12 62 12 114q0 141 -92 151v0zM205 351q-6 3 -8 6t-8 3l16 3l26 2q30 0 64 -15t56 -59.5t22 -117.5q0 -66 -21 -165l-104 -13q2 9 10.5 46.5t17 77
t8.5 104.5q0 128 -79 128v0zM187 21l-90 -61q-51 74 -51 151q0 79 48 147t93 104t72 52q-113 -133 -113 -257q0 -51 15 -87t26 -49v0z" />
    <glyph glyph-name="afii10079" unicode="&#x43d;" horiz-adv-x="429" 
d="M162 5l-112 -8l-3 58q0 105 22 164.5t35.5 87t27.5 46.5t27.5 36t18.5 21q-32 -114 -32 -234q0 -65 6 -109l10 -62v0zM268 401l112 8l3 -58q0 -105 -22 -164.5t-35.5 -87t-27.5 -46.5t-27.5 -36t-18.5 -20q32 113 32 233q0 65 -6 109l-10 62v0zM266 144q-9 10 -30 26
q-23 15 -52 15q-26 0 -52 -17q8 23 36 56q30 33 95 33l30 -2l-27 -111v0z" />
    <glyph glyph-name="afii10080" unicode="&#x43e;" horiz-adv-x="416" 
d="M282 243q-27 50 -68 65q-36 16 -67 16l70 101q82 -40 117 -94.5t35 -108.5l-3 -33q-11 -64 -42.5 -105t-60.5 -60t-46 -26q82 104 82 180q0 34 -17 65v0zM140 155q29 -34 68 -44.5t61 -10.5l-70 -101q-82 17 -117 75.5t-35 126.5l3 34q10 62 43 104t62.5 62t43.5 25
q-90 -95 -90 -183q0 -53 31 -88v0z" />
    <glyph glyph-name="afii10081" unicode="&#x43f;" horiz-adv-x="429" 
d="M273 14l7 51q0 14 2 48t2 35q0 191 -90 226q5 -1 13.5 -3.5t30 -11.5t55.5 -36.5t61.5 -82.5t27.5 -134q0 -40 -11 -100l-98 8v0zM260 353q-23 0 -73.5 -18t-104.5 -79q10 28 42.5 71.5t98.5 67.5l37 -42v0zM63 5l10 62q6 44 6 109q0 120 -32 234q5 -4 18.5 -21t27.5 -36
t27.5 -46.5t35.5 -87t22 -164.5l-3 -58l-112 8v0z" />
    <glyph glyph-name="afii10082" unicode="&#x440;" horiz-adv-x="396" 
d="M205 -136l-113 -34q-46 129 -46 266q0 112 23 195.5t39 118.5v-28q0 -65 3 -118.5t10 -103t14.5 -89.5t17.5 -75t17 -54t15 -39l20 -39v0zM233 262q-18 18 -44 18q-38 0 -66 -22.5t-38.5 -32t-21.5 -21.5l131 180q53 -7 79.5 -30.5t39.5 -42.5t25 -52.5t12 -70.5
q0 -29 -6 -44q-18 -57 -49 -88q-28 -31 -64 -43.5t-70 -12.5l-36 3l-20 4q87 0 128 44q40 39 40 97q0 35 -12 66.5t-28 47.5v0z" />
    <glyph glyph-name="afii10083" unicode="&#x441;" horiz-adv-x="375" 
d="M119 406l-10 -44q-6 -26 -6 -69q0 -48 15.5 -91.5t58 -71.5t114.5 -28l28 1l-40 -101q-125 12 -178.5 73t-53.5 145q0 39 12 83t29.5 72t30.5 31v0zM125 365q11 24 39.5 46.5t76.5 22.5q37 0 87 -18l-25 -108q-52 44 -109 44q-22 0 -38.5 -4.5t-32.5 -13.5l-14 -7l1 1
l1 1l1 1q4 15 13 35z" />
    <glyph glyph-name="afii10084" unicode="&#x442;" horiz-adv-x="496" 
d="M230 -10q-11 17 -27.5 63.5t-16.5 109.5q0 143 104 278l-11 -65q-7 -37 -7 -101q0 -69 14.5 -130t48.5 -106l-105 -49v0zM450 431l-51 -106q-114 38 -213 38q-54 0 -93 -9l-47 -16q48 39 107 60.5t115 28.5t111 7l47 -1l10 -1l8 -1h6v0z" />
    <glyph glyph-name="afii10085" unicode="&#x443;" horiz-adv-x="440" 
d="M197 394l-14 -85q-9 -59 -9 -120q0 -171 86 -171q11 0 20.5 2t31.5 11q-9 -6 -38.5 -18.5t-60.5 -12.5q-35 0 -65 21t-49.5 78t-19.5 152q0 62 8 134l110 9v0zM27 -102l80 53q-3 -12 -3 -33q0 -42 15 -59t26 -22q-35 -19 -64 -19q-54 0 -54 80v0zM275 383l112 31l3 -82
q0 -142 -37.5 -247t-86.5 -162.5t-85 -82.5t-57 -33q91 77 125.5 195t34.5 246l-3 86l-6 49v0z" />
    <glyph glyph-name="afii10086" unicode="&#x444;" horiz-adv-x="600" 
d="M182 255q-48 -71 -48 -129q0 -79 89 -127q-55 0 -115 33t-60 139q0 40 7.5 72.5t29 64.5t64 60.5t98.5 36.5l93 -102l-10 -9q-6 -5 -7.5 -5h-2.5l-2 3q0 33 -35 33q-24 0 -50.5 -17.5t-50.5 -52.5v0zM368 -180l-115 -33q-17 77 -17 164q0 91 16 166t42.5 142.5t38.5 86.5
l24 42q-16 -68 -23 -126t-9 -90t-2 -68q0 -110 17 -186t28 -98v0zM445 262q-18 18 -44 18q-38 0 -66 -22.5t-38.5 -32t-21.5 -21.5l131 180q53 -7 79.5 -30.5t39.5 -42.5t25 -52.5t12 -70.5q0 -29 -6 -44q-18 -57 -49 -88q-28 -31 -64 -43.5t-70 -12.5l-36 3l-20 4
q87 0 128 44q40 39 40 97q0 35 -12 66.5t-28 47.5v0z" />
    <glyph glyph-name="afii10087" unicode="&#x445;" horiz-adv-x="496" 
d="M189 406l16 -58q5 -17 16 -43.5t26 -59.5t35 -66t57 -82t108 -97q-16 2 -54 12q-40 13 -97.5 48.5t-113.5 107t-94 187.5l101 51v0zM49 80q8 2 22.5 7t37 14t75.5 48.5t105 115t85 184.5v-21q0 -40 -1.5 -57t-6.5 -47q-6 -55 -31 -124t-79 -127t-136 -82l-71 89v0z" />
    <glyph glyph-name="afii10088" unicode="&#x446;" horiz-adv-x="424" 
d="M210 39q17 0 42 11l51 25l28 14q-1 -16 -61 -52.5t-73 -36.5q-81 21 -115.5 88t-34.5 151q0 37 3.5 60t5 34.5t7.5 33.5t10 27l50 -18q25 -7 35.5 -11.5t14.5 -6.5q-13 -20 -18.5 -52t-7.5 -53t-2 -49q0 -61 15.5 -107.5t49.5 -57.5v0zM284 393q6 0 49 -17l44 -18
q-41 -100 -41 -221q0 -47 4 -72l8 -59l5 -24q-54 32 -77.5 97t-23.5 138q0 59 11 113.5t21 62.5v0zM326 104l78 -53q-14 -56 -43.5 -85.5t-53 -37t-39.5 -9.5q58 79 58 185v0z" />
    <glyph glyph-name="afii10089" unicode="&#x447;" horiz-adv-x="448" 
d="M262 384l119 16q18 -72 18 -137q0 -84 -27 -147.5t-43 -82.5t-27 -31.5t-19 -18.5q29 97 29 179t-19 141.5t-31 80.5v0zM58 358l120 36q7 -25 7 -52q0 -70 -33 -130t-56 -86q5 19 8 41t3 44q0 64 -13 89t-21 38t-15 20v0zM131 182q10 -5 30 -11q20 -7 51 -7
q106 0 166 117q-3 -10 -9.5 -24t-21.5 -42t-65 -65t-127 -37q-50 0 -106 17l82 52v0z" />
    <glyph glyph-name="afii10090" unicode="&#x448;" horiz-adv-x="634" 
d="M165 391l-9 -49q-4 -32 -4.5 -50.5t-0.5 -29.5q0 -56 10 -95q9 -44 34.5 -82.5t70.5 -58.5q-22 0 -71 20t-97.5 88t-48.5 194l5 79l111 -16v0zM190 42l2 -1h4l13 -1q82 0 153 78q-3 -11 -4.5 -15t-10 -21.5t-42.5 -46.5q-33 -25 -82 -31l-33 38v0zM362 394l-9 -57
q-6 -44 -6 -89q0 -174 91 -220q-12 0 -26 5.5t-47.5 22.5t-76 86.5t-42.5 196.5q0 35 4 71l112 -16v0zM372 47q101 0 173 81l-9 -20q-5 -11 -12 -20t-19 -24t-38 -31.5t-62 -23.5l-33 38v0zM556 396l-9 -54q-5 -43 -5 -96q0 -136 43 -256q-17 10 -49 45.5t-64 113t-32 189.5
q0 35 4 71l112 -13v0z" />
    <glyph glyph-name="afii10091" unicode="&#x449;" horiz-adv-x="634" 
d="M165 391l-9 -49q-4 -32 -4.5 -50.5t-0.5 -29.5q0 -56 10 -95q9 -44 34.5 -82.5t70.5 -58.5q-22 0 -71 20t-97.5 88t-48.5 194l5 79l111 -16v0zM190 42l2 -1h4l13 -1q82 0 153 78q-3 -11 -4.5 -15t-10 -21.5t-42.5 -46.5q-33 -25 -82 -31l-33 38v0zM362 394l-9 -57
q-6 -44 -6 -89q0 -174 91 -220q-12 0 -26 5.5t-47.5 22.5t-76 86.5t-42.5 196.5q0 35 4 71l112 -16v0zM372 47q101 0 173 81l-9 -20q-5 -11 -12 -20t-19 -24t-38 -31.5t-62 -23.5l-33 38v0zM556 396l-9 -54q-5 -43 -5 -96q0 -136 43 -256q-17 10 -49 45.5t-64 113t-32 189.5
q0 35 4 71l112 -13v0zM552 127l78 -58q-14 -61 -43.5 -92t-53 -39.5t-39.5 -10.5q58 84 58 200v0z" />
    <glyph glyph-name="afii10094" unicode="&#x44c;" horiz-adv-x="413" 
d="M80 229l55 14l43 11l18 5l12 3l7 2l5 1l11 3l3 1l4 1l4 1h2l2 1l3 1h4l6 2l3 1l4 1l8 2l28 7q31 -12 45 -34q16 -20 16 -52t-20 -67.5t-59 -65.5t-100.5 -48t-133.5 -18q71 12 123 39t80 60.5t28 64.5q0 22 -13.5 37.5t-40.5 25.5q-29 9 -67 9t-80 -8v0zM106 6
q-20 33 -27.5 65t-12 53.5t-4.5 40.5q0 15 -2 40.5t-2 37.5v6l1 18v5v6v4q0 31 7 52l13 39t15 40q41 -8 66.5 -14t40.5 -9q-23 -50 -53.5 -160t-30.5 -206v-16q-7 -2 -11 -2v0z" />
    <glyph glyph-name="afii10096" unicode="&#x44e;" horiz-adv-x="600" 
d="M46 384l101 29q17 -63 17 -131q0 -110 -32 -182.5t-53 -100.5l3 104q0 133 -13 196.5t-23 84.5v0zM466 243q-27 50 -68 65q-36 16 -67 16l70 101q82 -40 117 -94.5t35 -108.5l-3 -33q-11 -64 -42.5 -105t-60.5 -60t-46 -26q82 104 82 180q0 34 -17 65v0zM324 155
q29 -34 68 -44.5t61 -10.5l-70 -101q-82 17 -117 75.5t-35 126.5l3 34q10 62 43 104t62.5 62t43.5 25q-90 -95 -90 -183q0 -53 31 -88v0zM226 238l-7 -58q-10 8 -23 8q-5 0 -9.5 -1t-11.5 -3l-13 -9q2 9 6 22t17 29q12 14 29 14l12 -2v0z" />
    <glyph glyph-name="afii10097" unicode="&#x44f;" horiz-adv-x="400" 
d="M239 109q-56 6 -85 34t-36 53.5t-7 38.5q11 -13 37.5 -33.5t56.5 -20.5l2 -1h3l9 -1q41 0 80 43l4 -11l-64 -102v0zM216 394l84 -75l-3 -21q-33 22 -79 22l-22 -1l-6 -1l-3 -1h-3q-88 -12 -88 -78l2 -21l4 -13q-5 9 -14.5 33t-9.5 51q0 47 35.5 76t102.5 29v0zM324 -14
l-86 36q15 25 26 52.5t20 68t9 99.5q0 56 -7.5 97.5t-13.5 60.5q3 -5 12 -20.5t18.5 -35.5t25 -76.5t15.5 -130.5q0 -77 -19 -151v0zM47 16q26 63 63 93.5t65 39t42 8.5q-9 -5 -24 -18.5t-25 -27.5t-25.5 -43t-15.5 -86l-80 34v0z" />
    <glyph glyph-name="afii10071" unicode="&#x451;" horiz-adv-x="406" 
d="M235 242q21 30 21 71q0 34 -18 55.5t-53 21.5l-6 -1l-15 -1l30 14q22 8 49 8q74 0 95 -48t21 -65q0 -43 -51 -85t-181 -66v6l26 14q4 3 16.5 11.5t24.5 19.5q13 9 21 18t20 27v0zM124 260q0 -49 16.5 -84.5t58.5 -64.5t108 -29l30 1l18 3l-95 -98q-106 22 -159.5 78
t-53.5 105q0 98 41 156.5t82 77.5q39 20 61 24q-107 -71 -107 -169v0zM95 582l73 43q18 -36 18 -67q0 -40 -20.5 -66t-35.5 -36q-3 28 -15 71l-20 55v0zM210 583l73 43q18 -36 18 -67q0 -40 -20.5 -66t-35.5 -36q-3 28 -15 71l-20 55v0z" />
    <glyph glyph-name="afii10092" unicode="&#x44a;" horiz-adv-x="450" 
d="M129 229l55 14l43 11l18 5l12 3l7 2l5 1l11 3l3 1l4 1l4 1h2l2 1l3 1h4l6 2l3 1l4 1l8 2l28 7q31 -12 45 -34q16 -20 16 -52t-20 -67.5t-59 -65.5t-100.5 -48t-133.5 -18q71 12 123 39t80 60.5t28 64.5q0 22 -13.5 37.5t-40.5 25.5q-29 9 -67 9t-80 -8v0zM155 6
q-20 33 -27.5 65t-12 53.5t-4.5 40.5q0 15 -2 40.5t-2 37.5v6l1 18v5v6v4q0 31 7 52l13 39t15 40q41 -8 66.5 -14t38.5 21q-21 -80 -51.5 -190t-30.5 -206v-16q-7 -2 -11 -2v0zM248 421l-23 -89q-31 12 -70 12q-15 0 -29.5 -1.5t-35.5 -5.5l-40 -13q5 13 18 33t52 45
q38 22 92 22l36 -3v0z" />
    <glyph glyph-name="afii10093" unicode="&#x44b;" horiz-adv-x="550" 
d="M80 229l55 14l43 11l18 5l12 3l7 2l5 1l11 3l3 1l4 1l4 1h2l2 1l3 1h4l6 2l3 1l4 1l8 2l28 7q31 -12 45 -34q16 -20 16 -52t-20 -67.5t-59 -65.5t-100.5 -48t-133.5 -18q71 12 123 39t80 60.5t28 64.5q0 22 -13.5 37.5t-40.5 25.5q-29 9 -67 9t-80 -8v0zM106 6
q-20 33 -27.5 65t-12 53.5t-4.5 40.5q0 15 -2 40.5t-2 37.5v6l1 18v5v6v4q0 31 7 52l13 39t15 40q41 -8 66.5 -14t40.5 -9q-23 -50 -53.5 -160t-30.5 -206v-16q-7 -2 -11 -2v0zM379 385l101 29q17 -63 17 -131q0 -110 -32 -182.5t-53 -100.5l3 104q0 133 -13 196.5t-23 84.5
v0z" />
    <glyph glyph-name="afii10095" unicode="&#x44d;" horiz-adv-x="375" 
d="M256 406q13 -3 30.5 -31t29.5 -72t12 -83q0 -84 -53.5 -145t-178.5 -73l-40 101l28 -1q72 0 114.5 28t58 71.5t15.5 91.5q0 43 -6 69l-10 44v0zM263 330l1 -1l1 -1l1 -1l-14 7q-16 9 -32.5 13.5t-38.5 4.5q-57 0 -109 -44l-25 108q50 18 87 18q48 0 76.5 -22.5
t39.5 -46.5q9 -20 13 -35zM109 170l-27 111l30 2q65 0 95 -33q28 -33 36 -56q-26 17 -52 17q-29 0 -52 -15q-21 -16 -30 -26v0z" />
    <glyph glyph-name="afii10062" unicode="&#x40e;" horiz-adv-x="532" 
d="M484 621l1 -41q0 -153 -44.5 -264t-92 -164.5t-72 -77t-42.5 -35.5t-41 -26.5t-30 -17.5q12 14 26 32.5t46.5 66.5t72.5 150t40 210q0 53 -11 105l147 62v0zM47 551l145 29q-12 -48 -12 -98q0 -93 36.5 -159.5t76 -102t55.5 -44.5q-31 5 -92.5 33.5t-128.5 111.5t-80 230
v0zM392 725q-7 -65 -42 -91t-58 -31l-18 -1q-55 0 -78 18.5t-29 31.5q5 -6 15 -13t22.5 -14.5t40.5 -7.5q26 0 56.5 19.5t37.5 97.5l53 -9v0zM156 737l53 -9q-9 -18 -9 -40q0 -25 10 -39q10 -16 17 -21q-19 4 -45 27t-26 82v0z" />
    <glyph glyph-name="afii10110" unicode="&#x45e;" horiz-adv-x="440" 
d="M197 394l-14 -85q-9 -59 -9 -120q0 -171 86 -171q11 0 20.5 2t31.5 11q-9 -6 -38.5 -18.5t-60.5 -12.5q-35 0 -65 21t-49.5 78t-19.5 152q0 62 8 134l110 9v0zM27 -102l80 53q-3 -12 -3 -33q0 -42 15 -59t26 -22q-35 -19 -64 -19q-54 0 -54 80v0zM275 383l112 31l3 -82
q0 -142 -37.5 -247t-86.5 -162.5t-85 -82.5t-57 -33q91 77 125.5 195t34.5 246l-3 86l-6 49v0zM315 538q-5 -49 -31 -68t-43 -23l-13 -1q-41 0 -58 14t-22 24q4 -5 11.5 -10t17 -10.5t29.5 -5.5t42.5 14t27.5 72l39 -6v0zM140 546l40 -6q-7 -14 -7 -30q0 -18 7 -29
q8 -12 13 -15q-14 3 -33.5 20t-19.5 60v0z" />
  </font>
</defs>
</svg>
